<svg width="321" height="204" viewBox="0 0 321 204" fill="none" xmlns="http://www.w3.org/2000/svg">
<path d="M6.224 7.22534L24.224 36.7253L0.223999 60.7253L1.224 62.7253V94.7253H3.224V66.2253L29.224 40.7253H74.724V39.2253H103.224V35.2253H74.724V33.2253H30.724L11.724 3.72534L6.224 7.22534Z" fill="#D32325"/>
<path d="M6.224 200.225L24.224 170.725L0.223999 146.725L1.224 144.725V112.725H3.224V141.225L29.224 166.725H74.724V168.225H103.224V172.225H74.724V174.225H30.724L11.724 203.725L6.224 200.225Z" fill="#D32325"/>
<path d="M314.224 200.225L296.224 170.725L320.224 146.725L319.224 144.725V112.725H317.224V141.225L291.224 166.725H245.724V168.225H217.224V172.225H245.724V174.225H289.724L308.724 203.725L314.224 200.225Z" fill="#D32325"/>
<path d="M314.224 7.22534L296.224 36.7253L320.224 60.7253L319.224 62.7253V94.7253H317.224V66.2253L291.224 40.7253H245.724V39.2253H217.224V35.2253H245.724V33.2253H289.724L308.724 3.72534L314.224 7.22534Z" fill="#D32325"/>
<path d="M6.224 7.22534L24.224 36.7253L0.223999 60.7253L1.224 62.7253V94.7253H3.224V66.2253L29.224 40.7253H74.724V39.2253H103.224V35.2253H74.724V33.2253H30.724L11.724 3.72534L6.224 7.22534Z" stroke="#D33C1A" stroke-opacity="0.9"/>
<path d="M6.224 200.225L24.224 170.725L0.223999 146.725L1.224 144.725V112.725H3.224V141.225L29.224 166.725H74.724V168.225H103.224V172.225H74.724V174.225H30.724L11.724 203.725L6.224 200.225Z" stroke="#D33C1A" stroke-opacity="0.9"/>
<path d="M314.224 200.225L296.224 170.725L320.224 146.725L319.224 144.725V112.725H317.224V141.225L291.224 166.725H245.724V168.225H217.224V172.225H245.724V174.225H289.724L308.724 203.725L314.224 200.225Z" stroke="#D33C1A" stroke-opacity="0.9"/>
<path d="M314.224 7.22534L296.224 36.7253L320.224 60.7253L319.224 62.7253V94.7253H317.224V66.2253L291.224 40.7253H245.724V39.2253H217.224V35.2253H245.724V33.2253H289.724L308.724 3.72534L314.224 7.22534Z" stroke="#D33C1A" stroke-opacity="0.9"/>
<path d="M31.224 32.2254L13.224 3.72538H20.224L38.724 32.2254H31.224Z" fill="#BB3140"/>
<path d="M40.224 32.2253L22.224 3.72534H29.224L47.724 32.2253H40.224Z" fill="#BB3140"/>
<path d="M49.224 32.2253L31.224 3.72534L38.224 3.72534L56.724 32.2253H49.224Z" fill="#BB3140"/>
<path d="M58.224 32.2253L40.224 3.72534H47.224L65.724 32.2253L58.224 32.2253Z" fill="#BB3140"/>
<path d="M67.224 32.2254L49.224 3.72538H56.224L74.724 32.2254H67.224Z" fill="#BB3140"/>
<path d="M78.224 34.2254L58.224 3.72538L65.224 3.72538L85.224 34.2254H78.224Z" fill="#BB3140"/>
<path d="M87.224 34.2254L67.224 3.72538L74.224 3.72538L94.224 34.2254H87.224Z" fill="#BB3140"/>
<path fill-rule="evenodd" clip-rule="evenodd" d="M76.224 3.72538L96.224 34.2254H103.224L83.224 3.72538H76.224Z" fill="#BB3140"/>
<path d="M92.224 3.72538L85.224 3.72538L103.224 31.1754V20.5004L92.224 3.72538Z" fill="#BB3140"/>
<path d="M103.224 6.77537L101.224 3.72538L94.224 3.72538L103.224 17.4504L103.224 6.77537Z" fill="#BB3140"/>
<path d="M289.224 32.2254L307.224 3.72538H300.224L281.724 32.2254H289.224Z" fill="#BB3140"/>
<path d="M280.224 32.2253L298.224 3.72534L291.224 3.72534L272.724 32.2253H280.224Z" fill="#BB3140"/>
<path d="M271.224 32.2253L289.224 3.72534L282.224 3.72534L263.724 32.2253H271.224Z" fill="#BB3140"/>
<path d="M262.224 32.2253L280.224 3.72534L273.224 3.72534L254.724 32.2253L262.224 32.2253Z" fill="#BB3140"/>
<path d="M253.224 32.2254L271.224 3.72538L264.224 3.72538L245.724 32.2254H253.224Z" fill="#BB3140"/>
<path d="M242.224 34.2254L262.224 3.72538L255.224 3.72538L235.224 34.2254H242.224Z" fill="#BB3140"/>
<path d="M233.224 34.2254L253.224 3.72538L246.224 3.72538L226.224 34.2254H233.224Z" fill="#BB3140"/>
<path fill-rule="evenodd" clip-rule="evenodd" d="M244.224 3.72538L224.224 34.2254H217.224L237.224 3.72538L244.224 3.72538Z" fill="#BB3140"/>
<path d="M228.224 3.72538L235.224 3.72538L217.224 31.1754L217.224 20.5004L228.224 3.72538Z" fill="#BB3140"/>
<path d="M217.224 6.77537L219.224 3.72538L226.224 3.72538L217.224 17.4504L217.224 6.77537Z" fill="#BB3140"/>
<path d="M117.756 10.2253C119.164 10.2253 120.114 10.492 120.604 11.0253C121.095 11.5587 121.34 12.6147 121.34 14.1933V16.5293C121.34 17.7453 121.084 18.6307 120.572 19.1853C120.316 19.4627 119.975 19.7293 119.548 19.9853C119.143 20.2413 118.642 20.5507 118.044 20.9133L110.972 25.3293V32.0493H113.052V34.2253H106.332V32.0493H108.348V12.4333H106.332V10.2253H117.756ZM119.004 12.4333H110.972V22.7693L119.004 17.8093V12.4333ZM125.332 32.0493H127.348V12.4013H125.332V10.2253H132.052V12.4013H129.972V32.0493H136.692V28.3053H138.868V34.2253H125.332V32.0493ZM153.246 23.6653L150.398 12.4013L147.55 23.6653H153.246ZM159.87 32.0493V34.2253H153.63V32.0493H155.358L153.758 25.6813H147.038L145.438 32.0493H147.198V34.2253H140.958V32.0493H142.974L148.542 10.2253H152.318L157.79 32.0493H159.87ZM174.15 10.2253V12.4013H172.934L167.334 22.4173V32.0493H169.414V34.2253H162.694V32.0493H164.71V22.4173L159.398 12.4013H157.958V10.2253H163.142V12.4013H161.99L166.054 20.2093L170.214 12.4013H169.062V10.2253H174.15ZM188.348 18.4493V25.1693H186.172V22.8973H181.66V32.0493H189.852V28.3053H192.028V34.2253H177.02V32.0493H179.036V12.4013H177.02V10.2253H192.028V16.1453H189.852V12.4013H181.66V20.7213H186.172V18.4493H188.348ZM213.819 32.0493V34.2253H207.483V32.0493H209.211L203.739 23.2493L200.347 25.3293V32.0493H202.427V34.2253H195.707V32.0493H197.723V12.4013H195.707V10.2253H207.131C208.539 10.2253 209.489 10.5027 209.979 11.0573C210.47 11.5907 210.715 12.6467 210.715 14.2253V16.2093C210.715 17.02 210.641 17.66 210.491 18.1293C210.342 18.5987 210.075 19.0253 209.691 19.4093C209.307 19.772 208.795 20.1453 208.155 20.5293C207.515 20.9133 206.705 21.404 205.723 22.0013L212.027 32.0493H213.819ZM200.347 22.7693L208.379 17.8093V12.4013H200.347V22.7693Z" fill="#CD263A"/>
<path d="M29.224 42.7253L5.224 66.2253V141.225L20.224 155.725L29.224 164.725H291.224L315.224 140.725V66.2253L302.224 53.7253L291.224 42.7253H29.224Z" fill="url(#paint0_linear_1038_706)" fill-opacity="0.75"/>
<path d="M31.224 175.225L13.224 203.725H20.224L38.724 175.225H31.224Z" fill="#BB3140"/>
<path d="M40.224 175.225L22.224 203.725H29.224L47.724 175.225H40.224Z" fill="#BB3140"/>
<path d="M49.224 175.225L31.224 203.725H38.224L56.724 175.225H49.224Z" fill="#BB3140"/>
<path d="M58.224 175.225L40.224 203.725H47.224L65.724 175.225H58.224Z" fill="#BB3140"/>
<path d="M67.224 175.225L49.224 203.725H56.224L74.724 175.225L67.224 175.225Z" fill="#BB3140"/>
<path d="M78.224 173.225L58.224 203.725H65.224L85.224 173.225H78.224Z" fill="#BB3140"/>
<path d="M87.224 173.225L67.224 203.725H74.224L94.224 173.225L87.224 173.225Z" fill="#BB3140"/>
<path fill-rule="evenodd" clip-rule="evenodd" d="M76.224 203.725L96.224 173.225L103.224 173.225L83.224 203.725H76.224Z" fill="#BB3140"/>
<path d="M141.224 173.225L148.224 173.225L143.224 180.85L140.724 184.663L138.224 188.475L135.724 192.288H128.724L131.224 188.475L133.724 184.663L136.224 180.85L141.224 173.225Z" fill="#BB3140"/>
<path d="M150.224 173.225L157.224 173.225L152.224 180.85L147.224 188.475L144.724 192.288L137.724 192.288L145.224 180.85L150.224 173.225Z" fill="#BB3140"/>
<path d="M289.224 175.225L307.224 203.725H300.224L281.724 175.225H289.224Z" fill="#BB3140"/>
<path d="M280.224 175.225L298.224 203.725H291.224L272.724 175.225H280.224Z" fill="#BB3140"/>
<path d="M271.224 175.225L289.224 203.725H282.224L263.724 175.225H271.224Z" fill="#BB3140"/>
<path d="M262.224 175.225L280.224 203.725H273.224L254.724 175.225H262.224Z" fill="#BB3140"/>
<path d="M253.224 175.225L271.224 203.725H264.224L245.724 175.225L253.224 175.225Z" fill="#BB3140"/>
<path d="M242.224 173.225L262.224 203.725H255.224L235.224 173.225L242.224 173.225Z" fill="#BB3140"/>
<path d="M233.224 173.225L253.224 203.725H246.224L226.224 173.225L233.224 173.225Z" fill="#BB3140"/>
<path fill-rule="evenodd" clip-rule="evenodd" d="M244.224 203.725L224.224 173.225H217.224L237.224 203.725H244.224Z" fill="#BB3140"/>
<path d="M179.224 173.225L172.224 173.225L177.224 180.85L179.724 184.663L182.224 188.475L184.724 192.288L191.724 192.288L189.224 188.475L186.724 184.663L184.224 180.85L179.224 173.225Z" fill="#BB3140"/>
<path d="M170.224 173.225L163.224 173.225L168.224 180.85L173.224 188.475L175.724 192.288H182.724L175.224 180.85L170.224 173.225Z" fill="#BB3140"/>
<path d="M154.224 180.85L159.224 173.225L159.224 183.9L156.224 188.475L153.724 192.288L146.724 192.288L154.224 180.85Z" fill="#BB3140"/>
<path d="M166.224 180.85L161.224 173.225V183.9L164.224 188.475L166.724 192.288L173.724 192.288L166.224 180.85Z" fill="#BB3140"/>
<path d="M164.724 192.288H161.224V186.95L164.724 192.288Z" fill="#BB3140"/>
<path d="M155.724 192.288H159.224V186.95L155.724 192.288Z" fill="#BB3140"/>
<path d="M123.224 173.225L130.224 173.225L120.224 188.475L117.724 192.288H110.724L113.224 188.475L123.224 173.225Z" fill="#BB3140"/>
<path d="M132.224 173.225L139.224 173.225L134.224 180.85L131.724 184.663L129.224 188.475L126.724 192.288H119.724L122.224 188.475L124.724 184.663L127.224 180.85L132.224 173.225Z" fill="#BB3140"/>
<path d="M181.224 173.225L188.224 173.225L193.224 180.85L195.724 184.663L198.224 188.475L200.724 192.288L193.724 192.288L191.224 188.475L188.724 184.663L186.224 180.85L181.224 173.225Z" fill="#BB3140"/>
<path d="M190.224 173.225H197.224L207.224 188.475L209.724 192.288H202.724L200.224 188.475L190.224 173.225Z" fill="#BB3140"/>
<path d="M105.224 173.225H112.224L102.224 188.475L99.724 192.288H92.724L95.224 188.475L105.224 173.225Z" fill="#BB3140"/>
<path d="M114.224 173.225H121.224L111.224 188.475L108.724 192.288H101.724L104.224 188.475L114.224 173.225Z" fill="#BB3140"/>
<path d="M199.224 173.225L206.224 173.225L216.224 188.475L218.724 192.288H211.724L209.224 188.475L199.224 173.225Z" fill="#BB3140"/>
<path d="M208.224 173.225H215.224L225.224 188.475L227.724 192.288H220.724L218.224 188.475L208.224 173.225Z" fill="#BB3140"/>
<defs>
<linearGradient id="paint0_linear_1038_706" x1="160.224" y1="42.7253" x2="160.224" y2="164.725" gradientUnits="userSpaceOnUse">
<stop stop-color="#C52D3E" stop-opacity="0.8"/>
<stop offset="1" stop-color="#520911" stop-opacity="0.8"/>
</linearGradient>
</defs>
</svg>
