<svg width="321" height="205" viewBox="0 0 321 205" fill="none" xmlns="http://www.w3.org/2000/svg">
<path d="M6.224 7.59229L24.224 37.0923L0.223999 61.0923L1.224 63.0923V95.0923H3.224V66.5923L29.224 41.0923H74.724V39.5923H103.224V35.5923H74.724V33.5923H30.724L11.724 4.09229L6.224 7.59229Z" fill="#D32325"/>
<path d="M6.224 200.592L24.224 171.092L0.223999 147.092L1.224 145.092V113.092H3.224V141.592L29.224 167.092H74.724V168.592H103.224V172.592H74.724V174.592H30.724L11.724 204.092L6.224 200.592Z" fill="#D32325"/>
<path d="M314.224 200.592L296.224 171.092L320.224 147.092L319.224 145.092V113.092H317.224V141.592L291.224 167.092H245.724V168.592H217.224V172.592H245.724V174.592H289.724L308.724 204.092L314.224 200.592Z" fill="#D32325"/>
<path d="M314.224 7.59229L296.224 37.0923L320.224 61.0923L319.224 63.0923V95.0923H317.224V66.5923L291.224 41.0923H245.724V39.5923H217.224V35.5923H245.724V33.5923H289.724L308.724 4.09229L314.224 7.59229Z" fill="#D32325"/>
<path d="M6.224 7.59229L24.224 37.0923L0.223999 61.0923L1.224 63.0923V95.0923H3.224V66.5923L29.224 41.0923H74.724V39.5923H103.224V35.5923H74.724V33.5923H30.724L11.724 4.09229L6.224 7.59229Z" stroke="#D33C1A" stroke-opacity="0.9"/>
<path d="M6.224 200.592L24.224 171.092L0.223999 147.092L1.224 145.092V113.092H3.224V141.592L29.224 167.092H74.724V168.592H103.224V172.592H74.724V174.592H30.724L11.724 204.092L6.224 200.592Z" stroke="#D33C1A" stroke-opacity="0.9"/>
<path d="M314.224 200.592L296.224 171.092L320.224 147.092L319.224 145.092V113.092H317.224V141.592L291.224 167.092H245.724V168.592H217.224V172.592H245.724V174.592H289.724L308.724 204.092L314.224 200.592Z" stroke="#D33C1A" stroke-opacity="0.9"/>
<path d="M314.224 7.59229L296.224 37.0923L320.224 61.0923L319.224 63.0923V95.0923H317.224V66.5923L291.224 41.0923H245.724V39.5923H217.224V35.5923H245.724V33.5923H289.724L308.724 4.09229L314.224 7.59229Z" stroke="#D33C1A" stroke-opacity="0.9"/>
<path d="M289.224 32.5923L307.224 4.09232H300.224L281.724 32.5923H289.224Z" fill="#BB3140"/>
<path d="M280.224 32.5923L298.224 4.09229L291.224 4.09229L272.724 32.5923H280.224Z" fill="#BB3140"/>
<path d="M271.224 32.5923L289.224 4.09229L282.224 4.09229L263.724 32.5923H271.224Z" fill="#BB3140"/>
<path d="M262.224 32.5923L280.224 4.09229L273.224 4.09229L254.724 32.5923L262.224 32.5923Z" fill="#BB3140"/>
<path d="M253.224 32.5923L271.224 4.09232L264.224 4.09232L245.724 32.5923H253.224Z" fill="#BB3140"/>
<path d="M242.224 34.5923L262.224 4.09232L255.224 4.09232L235.224 34.5923H242.224Z" fill="#BB3140"/>
<path d="M233.224 34.5923L253.224 4.09232L246.224 4.09232L226.224 34.5923H233.224Z" fill="#BB3140"/>
<path fill-rule="evenodd" clip-rule="evenodd" d="M244.224 4.09232L224.224 34.5923H217.224L237.224 4.09232L244.224 4.09232Z" fill="#BB3140"/>
<path d="M228.224 4.09232L235.224 4.09232L217.224 31.5423L217.224 20.8673L228.224 4.09232Z" fill="#BB3140"/>
<path d="M217.224 7.14231L219.224 4.09232L226.224 4.09232L217.224 17.8173L217.224 7.14231Z" fill="#BB3140"/>
<path d="M105.877 14.8705V13.1705H109.727L115.027 24.0955L120.277 13.1705H124.127V14.8705H122.552V30.2205H124.127V31.9205H118.877V30.2205H120.502V17.3455L115.777 27.0705H114.202L109.502 17.2705V30.2205H111.127V31.9205H105.877V30.2205H107.452V14.8705H105.877ZM134.911 13.1705C135.928 13.1705 136.661 13.4539 137.111 14.0205C137.578 14.5705 137.811 15.3955 137.811 16.4955V28.5205C137.811 29.7205 137.611 30.5872 137.211 31.1205C136.811 31.6539 136.086 31.9205 135.036 31.9205H130.236C128.636 31.9205 127.694 31.3205 127.411 30.1205C127.311 29.7539 127.261 29.3455 127.261 28.8955V16.4955C127.261 15.3789 127.444 14.5705 127.811 14.0705C128.228 13.4705 128.969 13.1705 130.036 13.1705H134.911ZM129.261 30.2205H135.811V14.8705H129.261V30.2205ZM155.661 14.8705H154.086V31.9205H151.636L144.561 17.3205V30.2205H146.186V31.9205H140.936V30.2205H142.511V14.8705H140.936V13.1705H144.786L152.036 28.0705V14.8705H150.411V13.1705H155.661V14.8705ZM166.98 22.7455C167.313 22.9789 167.621 23.1872 167.905 23.3705C168.205 23.5372 168.463 23.7205 168.68 23.9205C169.113 24.3205 169.33 24.8122 169.33 25.3955V29.6455C169.33 30.3955 169.063 30.9705 168.53 31.3705C168.08 31.7372 167.488 31.9205 166.755 31.9205H158.78V27.2955H160.58V30.2205H167.33V25.3455L160.78 21.3205C160.196 20.9872 159.713 20.6455 159.33 20.2955C158.963 19.9289 158.78 19.4372 158.78 18.8205V15.6705C158.78 14.6872 159.013 14.0122 159.48 13.6455C159.88 13.3289 160.571 13.1705 161.555 13.1705H169.105V17.7955H167.305V14.8705H160.78V18.8705L166.98 22.7455ZM174.048 30.2205H175.623V14.8705H172.473V17.8205H170.673V13.1705H182.648V17.8205H180.823V14.8705H177.673V30.2205H179.298V31.9205H174.048V30.2205ZM193.756 19.5955V24.8455H192.056V23.0705H188.531V30.2205H194.931V27.2955H196.631V31.9205H184.906V30.2205H186.481V14.8705H184.906V13.1705H196.631V17.7955H194.931V14.8705H188.531V21.3705H192.056V19.5955H193.756ZM213.655 30.2205V31.9205H208.705V30.2205H210.055L205.78 23.3455L203.13 24.9705V30.2205H204.755V31.9205H199.505V30.2205H201.08V14.8705H199.505V13.1705H208.43C209.53 13.1705 210.272 13.3872 210.655 13.8205C211.038 14.2372 211.23 15.0622 211.23 16.2955V17.8455C211.23 18.4789 211.172 18.9789 211.055 19.3455C210.938 19.7122 210.73 20.0455 210.43 20.3455C210.13 20.6289 209.73 20.9205 209.23 21.2205C208.73 21.5205 208.097 21.9039 207.33 22.3705L212.255 30.2205H213.655ZM203.13 22.9705L209.405 19.0955V14.8705H203.13V22.9705Z" fill="#CD263A"/>
<path d="M29.224 43.0923L5.224 66.5923V141.592L20.224 156.092L29.224 165.092H291.224L315.224 141.092V66.5923L302.224 54.0923L291.224 43.0923H29.224Z" fill="url(#paint0_linear_1038_708)" fill-opacity="0.75"/>
<path d="M31.224 175.592L13.224 204.092H20.224L38.724 175.592H31.224Z" fill="#BB3140"/>
<path d="M40.224 175.592L22.224 204.092H29.224L47.724 175.592H40.224Z" fill="#BB3140"/>
<path d="M49.224 175.592L31.224 204.092H38.224L56.724 175.592H49.224Z" fill="#BB3140"/>
<path d="M58.224 175.592L40.224 204.092H47.224L65.724 175.592H58.224Z" fill="#BB3140"/>
<path d="M67.224 175.592L49.224 204.092H56.224L74.724 175.592L67.224 175.592Z" fill="#BB3140"/>
<path d="M78.224 173.592L58.224 204.092H65.224L85.224 173.592H78.224Z" fill="#BB3140"/>
<path d="M87.224 173.592L67.224 204.092H74.224L94.224 173.592L87.224 173.592Z" fill="#BB3140"/>
<path fill-rule="evenodd" clip-rule="evenodd" d="M76.224 204.092L96.224 173.592L103.224 173.592L83.224 204.092H76.224Z" fill="#BB3140"/>
<path d="M141.224 173.592L148.224 173.592L143.224 181.217L140.724 185.03L138.224 188.842L135.724 192.655H128.724L131.224 188.842L133.724 185.03L136.224 181.217L141.224 173.592Z" fill="#BB3140"/>
<path d="M150.224 173.592L157.224 173.592L152.224 181.217L147.224 188.842L144.724 192.655L137.724 192.655L145.224 181.217L150.224 173.592Z" fill="#BB3140"/>
<path d="M289.224 175.592L307.224 204.092H300.224L281.724 175.592H289.224Z" fill="#BB3140"/>
<path d="M280.224 175.592L298.224 204.092H291.224L272.724 175.592H280.224Z" fill="#BB3140"/>
<path d="M271.224 175.592L289.224 204.092H282.224L263.724 175.592H271.224Z" fill="#BB3140"/>
<path d="M262.224 175.592L280.224 204.092H273.224L254.724 175.592H262.224Z" fill="#BB3140"/>
<path d="M253.224 175.592L271.224 204.092H264.224L245.724 175.592L253.224 175.592Z" fill="#BB3140"/>
<path d="M242.224 173.592L262.224 204.092H255.224L235.224 173.592L242.224 173.592Z" fill="#BB3140"/>
<path d="M233.224 173.592L253.224 204.092H246.224L226.224 173.592L233.224 173.592Z" fill="#BB3140"/>
<path fill-rule="evenodd" clip-rule="evenodd" d="M244.224 204.092L224.224 173.592H217.224L237.224 204.092H244.224Z" fill="#BB3140"/>
<path d="M179.224 173.592L172.224 173.592L177.224 181.217L179.724 185.03L182.224 188.842L184.724 192.655L191.724 192.655L189.224 188.842L186.724 185.03L184.224 181.217L179.224 173.592Z" fill="#BB3140"/>
<path d="M170.224 173.592L163.224 173.592L168.224 181.217L173.224 188.842L175.724 192.655H182.724L175.224 181.217L170.224 173.592Z" fill="#BB3140"/>
<path d="M154.224 181.217L159.224 173.592L159.224 184.267L156.224 188.842L153.724 192.655L146.724 192.655L154.224 181.217Z" fill="#BB3140"/>
<path d="M166.224 181.217L161.224 173.592V184.267L164.224 188.842L166.724 192.655L173.724 192.655L166.224 181.217Z" fill="#BB3140"/>
<path d="M164.724 192.655H161.224V187.317L164.724 192.655Z" fill="#BB3140"/>
<path d="M155.724 192.655H159.224V187.317L155.724 192.655Z" fill="#BB3140"/>
<path d="M123.224 173.592L130.224 173.592L120.224 188.842L117.724 192.655H110.724L113.224 188.842L123.224 173.592Z" fill="#BB3140"/>
<path d="M132.224 173.592L139.224 173.592L134.224 181.217L131.724 185.03L129.224 188.842L126.724 192.655H119.724L122.224 188.842L124.724 185.03L127.224 181.217L132.224 173.592Z" fill="#BB3140"/>
<path d="M181.224 173.592L188.224 173.592L193.224 181.217L195.724 185.03L198.224 188.842L200.724 192.655L193.724 192.655L191.224 188.842L188.724 185.03L186.224 181.217L181.224 173.592Z" fill="#BB3140"/>
<path d="M190.224 173.592H197.224L207.224 188.842L209.724 192.655H202.724L200.224 188.842L190.224 173.592Z" fill="#BB3140"/>
<path d="M105.224 173.592H112.224L102.224 188.842L99.724 192.655H92.724L95.224 188.842L105.224 173.592Z" fill="#BB3140"/>
<path d="M114.224 173.592H121.224L111.224 188.842L108.724 192.655H101.724L104.224 188.842L114.224 173.592Z" fill="#BB3140"/>
<path d="M199.224 173.592L206.224 173.592L216.224 188.842L218.724 192.655H211.724L209.224 188.842L199.224 173.592Z" fill="#BB3140"/>
<path d="M208.224 173.592H215.224L225.224 188.842L227.724 192.655H220.724L218.224 188.842L208.224 173.592Z" fill="#BB3140"/>
<path d="M31.224 32.2254L13.224 3.72538H20.224L38.724 32.2254H31.224Z" fill="#BB3140"/>
<path d="M40.224 32.2253L22.224 3.72534H29.224L47.724 32.2253H40.224Z" fill="#BB3140"/>
<path d="M49.224 32.2253L31.224 3.72534L38.224 3.72534L56.724 32.2253H49.224Z" fill="#BB3140"/>
<path d="M58.224 32.2253L40.224 3.72534H47.224L65.724 32.2253L58.224 32.2253Z" fill="#BB3140"/>
<path d="M67.224 32.2254L49.224 3.72538H56.224L74.724 32.2254H67.224Z" fill="#BB3140"/>
<path d="M78.224 34.2254L58.224 3.72538L65.224 3.72538L85.224 34.2254H78.224Z" fill="#BB3140"/>
<path d="M87.224 34.2254L67.224 3.72538L74.224 3.72538L94.224 34.2254H87.224Z" fill="#BB3140"/>
<path fill-rule="evenodd" clip-rule="evenodd" d="M76.224 3.72538L96.224 34.2254H103.224L83.224 3.72538H76.224Z" fill="#BB3140"/>
<path d="M92.224 3.72538L85.224 3.72538L103.224 31.1754V20.5004L92.224 3.72538Z" fill="#BB3140"/>
<path d="M103.224 6.77537L101.224 3.72538L94.224 3.72538L103.224 17.4504L103.224 6.77537Z" fill="#BB3140"/>
<defs>
<linearGradient id="paint0_linear_1038_708" x1="160.224" y1="43.0923" x2="160.224" y2="165.092" gradientUnits="userSpaceOnUse">
<stop stop-color="#C52D3E" stop-opacity="0.8"/>
<stop offset="1" stop-color="#520911" stop-opacity="0.8"/>
</linearGradient>
</defs>
</svg>
