<svg width="300" height="65" viewBox="0 0 300 65" fill="none" xmlns="http://www.w3.org/2000/svg">
<path d="M53.4132 12.3213H59.9171L62.5442 14.99H72.3622L76.0579 12.3213H246.5L294.506 46.3428H223.939H174.059L172.002 47.6443H164.004L161.464 49.3988H150.652L145.992 51.3213H75.0336L73.1407 49.5205H59.9512L57.9385 51.3213H53.4132L62.0071 35.9105V28.2593L53.4132 12.3213Z" fill="#0C3845"/>
<path d="M53 8.32137H61.6042L63.8929 11.3214H71.0143L75.8533 8.32137L103.738 8.32129L106.227 9.32137H128L131.5 8.32137H186.165L190.623 9.21368H216.399L221.789 8.32137H240.83L245.083 11.3214H75.8533L71.7891 14.3475H62.863L60.231 11.3214H54.7085L53 8.32137Z" fill="#3BC7F4"/>
<path d="M46.0403 61.7552L51.4627 58.6074L54.749 53.3595H58.8901L60.994 51.3424H72.0006L74.0176 53.3595H147.061L151.685 51.3424H162.412L165.001 49.5119H173.231L174.988 48.3096H271.877L267.051 51.8443H235.664L233.784 53.3595H171.012L169.255 55.2452H156.586L153.072 56.9097H141.975L139.016 55.2452H82.0922L79.0922 56.9097H72.0006L68.92 52.9226H63.6676L61.4678 55.2452H56.337L51.007 61.7552H46.0403Z" fill="#3BC7F4"/>
<path d="M273.877 48.3096L269.051 51.8443H277.051L281.877 48.3096H273.877Z" fill="#3BC7F4"/>
<path d="M283.877 48.3096L279.051 51.8443H285.051L289.877 48.3096H283.877Z" fill="#3BC7F4"/>
<path d="M291.877 48.3096L287.051 51.8443H289.051L293.877 48.3096H291.877Z" fill="#3BC7F4"/>
</svg>
