<svg width="1930" height="718" viewBox="0 0 1930 718" fill="none" xmlns="http://www.w3.org/2000/svg">
<g clip-path="url(#clip0_921_1370)">
<path d="M1711 1.00001C1757.69 0.999999 1804.38 0.999999 1851.2 1.23258C1851.62 1.87797 1851.84 2.34875 1852.19 2.69528C1877.61 28.125 1903.04 53.55 1928.51 78.9347C1929.1 79.5266 1930.16 79.6553 1931 80C1931 91.3542 1931 102.708 1930.64 114.535C1926.03 117.458 1923.79 120.567 1923.86 126.044C1924.18 151.69 1923.33 177.367 1924.29 202.98C1924.74 214.955 1922.29 224.298 1912.31 231.175C1909.43 233.167 1908.92 235.944 1908.93 239.35C1909.04 283.488 1908.96 327.625 1909.08 371.762C1909.09 375.21 1908.14 377.605 1905.69 379.997C1903.72 381.927 1901.41 384.567 1901.2 387.06C1900.37 396.606 1900.09 406.218 1900.05 415.807C1899.92 443.955 1899.96 472.104 1900.1 500.251C1900.11 502.122 1901.08 504.432 1902.39 505.781C1910.73 514.393 1919.27 522.813 1927.81 531.229C1928.64 532.052 1929.92 532.42 1931 533C1931 560.021 1931 587.042 1930.65 614.535C1928.91 616.127 1927.4 617.131 1926.15 618.382C1898.13 646.358 1870.1 674.318 1842.22 702.429C1839.51 705.159 1836.84 706.1 1833.12 706.073C1812.66 705.921 1792.2 706 1771.73 706C1765.02 706 1757.44 711.886 1755 719C1685.98 719 1616.96 719 1547.46 718.646C1544.57 715.607 1542 713.046 1539.78 710.208C1537.07 706.754 1533.76 705.85 1529.45 705.903C1510.78 706.129 1492.12 706.1 1473.46 705.871C1471.17 705.843 1468.39 704.596 1466.71 702.995C1458.15 694.835 1449.99 686.252 1441.4 678.117C1439.62 676.427 1436.64 675.136 1434.2 675.128C1383.38 674.958 1332.55 674.997 1281.73 675.004C1274.73 675.005 1266.92 673.123 1260.96 675.624C1254.84 678.193 1250.52 685.067 1245.41 690.058C1245.29 690.174 1245.21 690.361 1245.08 690.422C1243.08 691.29 1241.09 692.886 1239.09 692.891C1186.43 693.028 1133.77 693.033 1081.11 692.882C1078.98 692.876 1076.38 691.63 1074.8 690.121C1066.5 682.173 1058.35 674.051 1050.38 665.774C1047.78 663.08 1045.19 661.9 1041.36 661.91C991.033 662.045 940.707 662.032 890.381 661.928C886.984 661.921 884.541 662.727 882.129 665.235C874.045 673.639 865.602 681.698 857.503 690.089C855.334 692.336 853.157 693.064 850.13 693.059C801.137 692.975 752.14 692.696 703.154 693.252C693.162 693.365 685.432 691.407 679.672 683.176C674.856 676.294 668.317 674.744 660.013 674.805C604.359 675.217 548.7 675.075 492.844 674.916C492.084 674.643 491.524 674.567 490.964 674.491C491.013 675.009 491.062 675.527 490.977 676.356C487.267 680.125 483.691 683.584 479.764 687.057C478.624 687.753 477.833 688.434 477.019 689.462C472.949 694.018 468.902 698.227 464.494 702.465C463.422 703.607 462.71 704.72 461.536 705.906C441.278 705.986 421.484 705.993 401.69 706C396.287 706.001 387.032 713.21 385 719C315.979 719 246.958 719 177.803 718.768C174.879 715.294 172.344 711.769 169.197 708.922C167.468 707.358 164.714 706.146 162.409 706.123C141.078 705.914 119.744 705.902 98.4131 706.094C94.7489 706.126 92.3304 704.962 89.8087 702.424C61.8485 674.29 33.7806 646.264 5.69246 618.257C4.36523 616.934 2.57475 616.075 1 615C1 587.979 1 560.958 1.35434 533.465C2.97728 531.989 4.35545 531.097 5.49682 529.965C13.3014 522.229 20.9665 514.349 28.8822 506.728C31.2378 504.461 32.1017 502.168 32.0633 498.941C31.6306 462.547 31.2794 426.152 31.0817 389.756C31.0613 385.999 30.4234 382.973 27.2678 380.753C23.6892 378.236 22.8877 374.799 22.9053 370.483C23.0661 330.852 22.514 291.211 23.2896 251.595C23.5291 239.363 21.2153 229.781 11.1531 222.366C9.33765 221.028 8.14814 217.673 8.13188 215.239C7.93055 185.1 7.91632 154.96 8.07878 124.821C8.10764 119.467 5.4491 116.765 1 115C1 103.646 1 92.2915 1.35434 80.4649C2.26991 79.695 2.94621 79.5128 3.37591 79.0836C27.9981 54.4924 52.6145 29.8954 77.151 5.21895C78.1605 4.20362 78.4011 2.4237 79 1C126.021 0.999999 173.042 0.999999 220.2 1.23261C226.156 7.40931 232.133 13.2103 237.733 19.3537C240.857 22.7798 244.134 24.1393 248.896 24.1215C300.884 23.9274 352.873 23.9959 404.862 24.0047C412.025 24.0059 419.985 22.1308 426.126 24.6534C432.249 27.168 436.399 34.2887 441.73 39.0353C443.48 40.5936 446.209 41.8527 448.503 41.8743C470.663 42.0837 492.826 42.0084 514.988 41.9947C521.484 41.9907 528.672 43.644 534.279 41.3922C539.684 39.2219 543.327 32.8436 548.021 28.6226C549.548 27.249 551.943 26.1281 553.952 26.111C574.946 25.9315 595.943 25.919 616.936 26.1241C619.069 26.1449 621.665 27.3936 623.23 28.913C633.63 39.0082 643.877 49.265 654.006 59.6325C656.382 62.0637 658.733 63.0879 662.198 63.0828C736.349 62.974 810.5 63.0796 884.65 62.8576C890.947 62.8388 895.973 63.9289 899.644 69.1652C901.99 72.5113 905.172 73.101 909.112 73.0857C946.103 72.9417 983.097 72.8286 1020.09 73.1677C1026.31 73.2248 1031.01 71.8282 1034.6 66.8977C1036.98 63.6268 1040.08 62.905 1044.05 62.9114C1119.37 63.0319 1194.68 62.9809 1270 63.0662C1273.24 63.0698 1275.5 62.1592 1277.77 59.8369C1288.02 49.3499 1298.38 38.9724 1308.9 28.768C1310.46 27.262 1313.1 26.15 1315.26 26.1194C1330.92 25.8976 1346.65 26.8862 1362.23 25.7338C1375.91 24.7217 1386.75 27.7288 1394.94 39.1723C1396.15 40.8636 1399.4 41.859 1401.71 41.8807C1423.21 42.0824 1444.7 42.0174 1466.2 41.9901C1473.35 41.981 1481.27 43.7522 1487.43 41.2443C1493.41 38.8102 1497.7 32.0483 1502.48 26.9473C1504.6 24.6784 1506.79 23.9308 1509.84 23.936C1561.66 24.0252 1613.48 24.0038 1665.31 23.9959C1673.3 23.9947 1682.23 26.1543 1689.04 23.2936C1696.01 20.3629 1700.97 12.5505 1706.68 6.74808C1708.35 5.05473 1709.57 2.92808 1711 1.00001ZM1877.45 511.499C1877.96 509.625 1878.93 507.752 1878.93 505.876C1879.02 472.309 1879.03 438.74 1878.91 405.173C1878.9 403.433 1877.59 401.697 1876.99 399.166C1877.55 397.388 1877.6 395.112 1878.76 393.912C1885.66 386.789 1892.82 379.915 1900.61 372.75C1901.41 370.553 1902.86 368.364 1902.89 366.157C1903.09 350.379 1903 334.597 1903 318.816C1903 293.235 1903.06 267.653 1902.88 242.073C1902.86 240.042 1901.11 238.024 1899.88 235.378C1893.4 228.905 1887.01 222.333 1880.39 216.008C1877.93 213.663 1876.89 211.3 1876.91 207.823C1877.07 181.995 1877.06 156.165 1876.89 130.337C1876.87 128.174 1875.81 125.473 1874.3 123.946C1850.97 100.38 1827.52 76.9356 1803.97 53.5925C1802.54 52.1737 1800.04 51.1058 1798.03 51.1042C1648.05 50.99 1498.08 50.9882 1348.1 51.1162C1345.97 51.1181 1343.38 52.3765 1341.8 53.8859C1333.61 61.7159 1325.56 69.6979 1317.74 77.8895C1314.89 80.8674 1312.06 82.1226 1307.85 82.1052C1265.69 81.9317 1223.53 81.9998 1181.37 81.9998C995.403 81.9998 809.433 81.9886 623.463 82.0817C619.831 82.0835 617.338 81.0702 614.837 78.4681C606.755 70.0615 598.499 61.8149 590.077 53.751C588.512 52.2526 585.863 51.1122 583.713 51.1104C433.904 50.9886 284.095 50.9887 134.286 51.1101C132.133 51.1119 129.441 52.2243 127.912 53.7385C104.471 76.9546 81.1411 100.284 57.9428 123.743C56.3282 125.376 55.1411 128.227 55.1239 130.522C54.9282 156.516 55.0719 182.513 54.8744 208.507C54.857 210.797 53.5991 213.557 52.0185 215.267C46.3704 221.381 40.2164 227.026 34.5307 233.107C33.1447 234.589 32.1098 237.057 32.1034 239.075C31.9668 282.401 31.9657 325.728 32.1075 369.053C32.1141 371.057 33.2266 373.498 34.6244 374.98C40.6789 381.402 47.1538 387.428 53.1876 393.867C54.68 395.46 55.8734 398.062 55.8832 400.206C56.0465 436.033 56.0454 471.861 55.8866 507.688C55.877 509.844 54.7682 512.506 53.2677 514.061C43.8989 523.772 34.1902 533.155 24.8159 542.86C23.3075 544.422 22.159 547.044 22.1218 549.198C21.8826 563.025 21.8857 576.86 22.1179 590.687C22.1543 592.854 23.225 595.519 24.7306 597.063C36.595 609.231 49.0943 620.805 60.5332 633.352C66.6833 640.097 73.0951 643.569 82.1031 642.017C85.8085 641.378 88.5243 642.816 91.2152 645.581C103.419 658.116 115.94 670.342 128.2 682.823C130.47 685.134 132.724 686.077 135.97 686.069C177.797 685.965 219.625 686.22 261.448 685.807C269.397 685.728 275.532 687.225 280.378 693.698C281.578 695.301 284.082 696.86 285.99 696.864C343.645 696.993 401.301 696.924 459.428 697.278C460.503 697.04 461.923 697.16 462.6 696.508C468.591 690.741 474.515 684.9 480.269 678.899C481.023 678.112 480.706 676.297 481.152 674.338C494.587 660.912 507.946 647.409 521.547 634.155C523.301 632.445 526.307 631.128 528.734 631.127C820.183 630.993 1111.63 631.006 1403.08 630.929C1406.36 630.928 1408.57 631.947 1410.83 634.225C1430.66 654.215 1450.65 674.054 1470.47 694.055C1472.65 696.253 1474.78 697.069 1477.83 697.064C1531.48 696.976 1585.14 696.848 1638.8 697.182C1645.9 697.227 1651.4 695.842 1655.45 690.031C1657.92 686.489 1661.25 685.909 1665.34 685.921C1708.83 686.049 1752.32 685.956 1795.82 686.084C1799.28 686.095 1801.64 685.061 1804.01 682.629C1814.14 672.257 1824.95 662.507 1834.53 651.664C1841.15 644.171 1848.23 640.196 1858.18 641.993C1861.23 642.543 1863.37 641.251 1865.54 639.049C1879.33 625.041 1893.36 611.256 1907.1 597.199C1908.71 595.558 1909.83 592.714 1909.87 590.403C1910.13 576.743 1910.14 563.074 1909.87 549.415C1909.82 547.122 1908.57 544.351 1906.97 542.672C1897.09 532.323 1886.94 522.225 1877.45 511.499Z" fill="#3BC7F4"/>
<path d="M1900.25 372.854C1899.93 327.614 1899.98 282.27 1900.09 236.463C1901.11 238.023 1902.86 240.041 1902.88 242.072C1903.06 267.652 1903 293.234 1903 318.816C1903 334.597 1903.09 350.379 1902.89 366.157C1902.86 368.364 1901.41 370.553 1900.25 372.854Z" fill="#39C7F4"/>
<path d="M1877.17 511.771C1876.59 511.349 1876.04 510.655 1876.04 509.961C1876.05 473.451 1876.1 436.942 1876.52 400.196C1877.59 401.697 1878.9 403.432 1878.91 405.172C1879.03 438.74 1879.02 472.308 1878.93 505.876C1878.93 507.752 1877.96 509.625 1877.17 511.771Z" fill="#39C7F4"/>
<path d="M459.192 697.083C466.061 689.662 473.166 682.437 480.578 675.085C480.706 676.297 481.023 678.112 480.269 678.899C474.515 684.9 468.591 690.741 462.6 696.508C461.923 697.16 460.503 697.04 459.192 697.083Z" fill="#39C7F4"/>
<path d="M492.844 674.916C492.598 675.409 492.152 675.705 491.408 676.023C491.062 675.527 491.013 675.009 490.964 674.491C491.524 674.567 492.084 674.643 492.844 674.916Z" fill="#39C7F4"/>
<path d="M464.494 702.465C464.131 703.554 463.406 704.673 462.34 705.812C462.71 704.72 463.422 703.607 464.494 702.465Z" fill="#39C7F4"/>
<path d="M479.764 687.057C479.309 687.698 478.503 688.353 477.37 689.061C477.833 688.434 478.624 687.753 479.764 687.057Z" fill="#39C7F4"/>
<path d="M1828.75 637.75C1818.84 647.663 1809.08 657.236 1799.57 667.047C1796.8 669.903 1793.97 671.092 1789.96 671.08C1746.79 670.951 1703.63 671.065 1660.46 670.908C1655.62 670.891 1651.62 671.688 1648.73 675.771C1645 681.039 1639.92 682.166 1633.6 682.135C1584.1 681.89 1534.6 681.958 1485.1 682.078C1481.12 682.088 1478.29 680.929 1475.48 678.092C1456.14 658.539 1436.61 639.184 1417.25 619.653C1414.72 617.102 1412.19 615.926 1408.52 615.927C1113.53 616.006 818.531 616.006 523.534 615.929C519.883 615.928 517.332 617.045 514.791 619.61C495.435 639.144 475.899 658.499 456.56 678.049C453.765 680.875 450.959 682.089 446.955 682.08C396.289 681.958 345.623 681.956 294.957 682.082C290.93 682.092 287.763 681.169 285.447 677.923C281.264 672.061 275.662 670.784 268.595 670.838C226.265 671.164 183.93 670.959 141.598 671.071C137.966 671.08 135.375 670.032 132.832 667.439C120.931 655.301 108.75 643.437 96.8891 631.26C93.853 628.143 90.7492 626.3 86.4073 627.007C78.6423 628.27 73.0096 625.343 67.7243 619.484C58.9171 609.72 49.142 600.835 40.0268 591.338C38.3937 589.636 37.2158 586.792 37.1352 584.43C36.8111 574.941 36.7609 565.425 37.1551 555.942C37.2651 553.295 38.6406 550.147 40.476 548.221C49.4407 538.812 58.8738 529.849 67.848 520.449C69.572 518.643 70.8563 515.587 70.8681 513.101C71.054 473.768 71.061 434.435 70.859 395.103C70.8456 392.478 69.4274 389.318 67.6323 387.343C61.9214 381.06 55.5876 375.347 49.805 369.125C48.2916 367.496 47.1263 364.824 47.1174 362.625C46.9579 323.293 46.952 283.96 47.1243 244.628C47.1346 242.286 48.3866 239.466 49.9834 237.705C55.016 232.157 60.3463 226.853 65.8465 221.763C68.9026 218.934 70.1266 215.953 70.0943 211.737C69.9031 186.739 70.0587 161.738 69.9343 136.739C69.9165 133.152 70.842 130.512 73.4531 127.928C93.1168 108.466 112.574 88.7954 132.296 69.3943C134.174 67.5472 137.426 66.14 140.042 66.1372C286.04 65.9829 432.039 65.9827 578.037 66.1397C580.645 66.1425 583.82 67.6318 585.759 69.4584C594.004 77.2259 601.977 85.2919 609.843 93.4491C612.37 96.0699 614.987 97.0778 618.614 97.0691C663.78 96.9616 708.946 96.9989 754.112 96.9989C939.944 96.9989 1125.78 96.9821 1311.61 97.0914C1316.48 97.0943 1320.03 95.8439 1323.4 92.2524C1330.81 84.3559 1338.52 76.7269 1346.39 69.2969C1348.23 67.5665 1351.22 66.136 1353.68 66.1335C1499.85 65.9847 1646.01 65.985 1792.18 66.1291C1794.65 66.1315 1797.74 67.4477 1799.51 69.1936C1819.46 88.843 1839.26 108.641 1858.9 128.592C1860.64 130.356 1861.85 133.465 1861.87 135.961C1862.08 161.292 1862.08 186.626 1861.92 211.958C1861.89 215.967 1863.04 218.844 1865.96 221.562C1871.56 226.785 1877 232.212 1882.18 237.854C1883.69 239.497 1884.87 242.152 1884.88 244.348C1885.04 283.681 1885.05 323.014 1884.88 362.346C1884.87 364.69 1883.64 367.535 1882.03 369.274C1876.15 375.634 1869.74 381.502 1863.84 387.838C1862.32 389.467 1861.13 392.13 1861.12 394.324C1860.96 434.156 1860.96 473.989 1861.12 513.822C1861.13 516.001 1862.39 518.665 1863.94 520.267C1873.08 529.742 1882.6 538.847 1891.67 548.383C1893.49 550.297 1894.74 553.498 1894.85 556.162C1895.23 565.48 1895.21 574.831 1894.86 584.15C1894.76 586.662 1893.55 589.693 1891.81 591.489C1881.17 602.522 1870.3 613.342 1859.3 624.028C1857.71 625.58 1854.86 627.137 1852.9 626.813C1842.4 625.073 1834.99 629.52 1828.75 637.75Z" fill="#0C3845"/>
</g>
<defs>
<clipPath id="clip0_921_1370">
<rect width="1930" height="718" fill="white"/>
</clipPath>
</defs>
</svg>
