<svg width="310" height="74" viewBox="0 0 310 74" fill="none" xmlns="http://www.w3.org/2000/svg">
<g filter="url(#filter0_d_1010_663)">
<path d="M58 14.3213H64.504L67.131 16.99H76.9491L80.6448 14.3213H251.087L299.093 48.3428H228.525H178.646L176.589 49.6443H168.59L166.05 51.3988H155.239L150.579 53.3213H79.6204L77.7276 51.5205H64.5381L62.5254 53.3213H58L66.5939 37.9105V30.2593L58 14.3213Z" fill="#0C3845"/>
</g>
<g clip-path="url(#clip0_1010_663)" filter="url(#filter1_d_1010_663)">
<path d="M19.0111 9.92071L24.4814 6.79203L49.5188 6.79203L54.989 9.92082L67.5 31.3884L67.5 37.6305L54.9889 59.0981L49.5187 62.2268L24.4812 62.2268L19.011 59.098L6.5 37.6304L6.50005 31.3884L19.0111 9.92071Z" fill="#0C3845" stroke="#3BC7F4" stroke-width="3"/>
</g>
<g filter="url(#filter2_d_1010_663)">
<path d="M58 10.3214H66.6042L68.8929 13.3214H76.0143L80.8533 10.3214L108.738 10.3213L111.227 11.3214H133L136.5 10.3214H191.165L195.623 11.2137H221.399L226.789 10.3214H245.83L250.083 13.3214H80.8533L76.7891 16.3475H67.863L65.231 13.3214H59.7085L58 10.3214Z" fill="#3BC7F4"/>
</g>
<g filter="url(#filter3_d_1010_663)">
<path d="M51.0403 63.7552L56.4627 60.6074L59.749 55.3595H63.8901L65.994 53.3424H77.0006L79.0176 55.3595H152.061L156.685 53.3424H167.412L170.001 51.5119H178.231L179.988 50.3096H276.877L272.051 53.8443H240.664L238.784 55.3595H176.012L174.255 57.2452H161.586L158.072 58.9097H146.975L144.016 57.2452H87.0922L84.0922 58.9097H77.0006L73.92 54.9226H68.6676L66.4678 57.2452H61.337L56.007 63.7552H51.0403Z" fill="#3BC7F4"/>
<path d="M278.877 50.3096L274.051 53.8443H282.051L286.877 50.3096H278.877Z" fill="#3BC7F4"/>
<path d="M288.877 50.3096L284.051 53.8443H290.051L294.877 50.3096H288.877Z" fill="#3BC7F4"/>
<path d="M296.877 50.3096L292.051 53.8443H294.051L298.877 50.3096H296.877Z" fill="#3BC7F4"/>
</g>
<defs>
<filter id="filter0_d_1010_663" x="48" y="4.32129" width="261.093" height="59" filterUnits="userSpaceOnUse" color-interpolation-filters="sRGB">
<feFlood flood-opacity="0" result="BackgroundImageFix"/>
<feColorMatrix in="SourceAlpha" type="matrix" values="0 0 0 0 0 0 0 0 0 0 0 0 0 0 0 0 0 0 127 0" result="hardAlpha"/>
<feOffset/>
<feGaussianBlur stdDeviation="5"/>
<feComposite in2="hardAlpha" operator="out"/>
<feColorMatrix type="matrix" values="0 0 0 0 0.843368 0 0 0 0 0.945833 0 0 0 0 0.938063 0 0 0 1 0"/>
<feBlend mode="normal" in2="BackgroundImageFix" result="effect1_dropShadow_1010_663"/>
<feBlend mode="normal" in="SourceGraphic" in2="effect1_dropShadow_1010_663" result="shape"/>
</filter>
<filter id="filter1_d_1010_663" x="0" y="-1.67871" width="72" height="72" filterUnits="userSpaceOnUse" color-interpolation-filters="sRGB">
<feFlood flood-opacity="0" result="BackgroundImageFix"/>
<feColorMatrix in="SourceAlpha" type="matrix" values="0 0 0 0 0 0 0 0 0 0 0 0 0 0 0 0 0 0 127 0" result="hardAlpha"/>
<feOffset dx="-1"/>
<feGaussianBlur stdDeviation="2"/>
<feColorMatrix type="matrix" values="0 0 0 0 0.843137 0 0 0 0 0.945098 0 0 0 0 0.937255 0 0 0 1 0"/>
<feBlend mode="normal" in2="BackgroundImageFix" result="effect1_dropShadow_1010_663"/>
<feBlend mode="normal" in="SourceGraphic" in2="effect1_dropShadow_1010_663" result="shape"/>
</filter>
<filter id="filter2_d_1010_663" x="48" y="0.321289" width="212.083" height="26.0261" filterUnits="userSpaceOnUse" color-interpolation-filters="sRGB">
<feFlood flood-opacity="0" result="BackgroundImageFix"/>
<feColorMatrix in="SourceAlpha" type="matrix" values="0 0 0 0 0 0 0 0 0 0 0 0 0 0 0 0 0 0 127 0" result="hardAlpha"/>
<feOffset/>
<feGaussianBlur stdDeviation="5"/>
<feComposite in2="hardAlpha" operator="out"/>
<feColorMatrix type="matrix" values="0 0 0 0 0.843368 0 0 0 0 0.945833 0 0 0 0 0.938063 0 0 0 1 0"/>
<feBlend mode="normal" in2="BackgroundImageFix" result="effect1_dropShadow_1010_663"/>
<feBlend mode="normal" in="SourceGraphic" in2="effect1_dropShadow_1010_663" result="shape"/>
</filter>
<filter id="filter3_d_1010_663" x="41.0403" y="40.3096" width="267.836" height="33.4456" filterUnits="userSpaceOnUse" color-interpolation-filters="sRGB">
<feFlood flood-opacity="0" result="BackgroundImageFix"/>
<feColorMatrix in="SourceAlpha" type="matrix" values="0 0 0 0 0 0 0 0 0 0 0 0 0 0 0 0 0 0 127 0" result="hardAlpha"/>
<feOffset/>
<feGaussianBlur stdDeviation="5"/>
<feComposite in2="hardAlpha" operator="out"/>
<feColorMatrix type="matrix" values="0 0 0 0 0.843368 0 0 0 0 0.945833 0 0 0 0 0.938063 0 0 0 1 0"/>
<feBlend mode="normal" in2="BackgroundImageFix" result="effect1_dropShadow_1010_663"/>
<feBlend mode="normal" in="SourceGraphic" in2="effect1_dropShadow_1010_663" result="shape"/>
</filter>
<clipPath id="clip0_1010_663">
<rect width="64" height="64" fill="white" transform="translate(5 2.32129)"/>
</clipPath>
</defs>
</svg>
