<svg width="300" height="65" viewBox="0 0 300 65" fill="none" xmlns="http://www.w3.org/2000/svg">
<path d="M38.9073 14.8875H45.4113L48.0383 17.5562H57.8564L61.552 14.8875H251.994L300 48.9089H209.433H159.553L157.496 50.2104H149.498L146.958 51.965H136.147L131.486 53.8875H60.5277L58.6349 52.0867H45.4453L43.4327 53.8875H38.9073L47.5012 38.4767V30.8254L38.9073 14.8875Z" fill="#0C3845"/>
<path d="M38.4941 10.8875H47.0983L49.3871 13.8875H56.5085L61.3475 10.8875L89.2319 10.8875L91.7216 11.8875H113.494L116.994 10.8875H171.659L176.117 11.7798H201.893L207.283 10.8875H246.324L250.577 13.8875H61.3475L57.2832 16.9136H48.3571L45.7251 13.8875H40.2026L38.4941 10.8875Z" fill="#3BC7F4"/>
<path d="M31.5344 64.3214L36.9569 61.1735L40.2431 55.9257H44.3842L46.4881 53.9086H57.4948L59.5118 55.9257H132.555L137.179 53.9086H147.906L150.495 52.0781H158.725L160.482 50.8757H277.371L272.545 54.4104H221.158L219.278 55.9257H156.506L154.749 57.8114H142.08L138.566 59.4759H127.469L124.51 57.8114H67.5863L64.5863 59.4759H57.4948L54.4141 55.4887H49.1618L46.962 57.8114H41.8311L36.5012 64.3214H31.5344Z" fill="#3BC7F4"/>
<path d="M279.371 50.8757L274.545 54.4104H282.545L287.371 50.8757H279.371Z" fill="#3BC7F4"/>
<path d="M289.371 50.8757L284.545 54.4104H290.545L295.371 50.8757H289.371Z" fill="#3BC7F4"/>
<path d="M297.371 50.8757L292.545 54.4104H294.545L299.371 50.8757H297.371Z" fill="#3BC7F4"/>
</svg>
