<svg width="275" height="253" viewBox="0 0 275 253" fill="none" xmlns="http://www.w3.org/2000/svg">
<path d="M86.5445 6.44458H84.9499L83.5656 7.23628L59.4829 21.0103L58.0873 21.8085L57.2778 23.1975L6.81899 109.78L6.00291 111.18L6.0029 112.801L6.00269 140.349L6.00267 141.97L6.81878 143.37L57.2775 229.952L58.0869 231.341L59.4824 232.139L83.5648 245.914L84.9491 246.706H86.5438H187.461H189.056L190.44 245.914L214.523 232.14L215.918 231.342L216.728 229.953L267.187 143.371L268.003 141.97L268.003 140.35L268.003 112.801V111.18L267.187 109.78L216.728 23.198L215.919 21.8091L214.523 21.0109L190.441 7.23634L189.056 6.44458H187.462H86.5445Z" fill="#0C3845" stroke="#3BC7F4" stroke-width="12"/>
<g clip-path="url(#clip0_1036_603)">
<path d="M67.2749 139.685C67.4542 139.415 67.77 139.293 67.7933 139.129C68.9334 131.108 72.0683 123.91 76.7662 117.365C79.8896 113.013 83.6929 109.332 88.0338 106.202C93.455 102.293 99.4527 99.6331 105.936 98.0883C110.883 96.9094 115.944 96.5844 120.989 96.9461C127.579 97.4187 133.913 99.1106 139.804 102.149C142.212 103.391 144.459 104.963 146.705 106.493C148.348 107.612 149.398 107.607 150.85 106.156C166.21 90.7965 181.568 75.4352 196.934 60.0812C197.954 59.0614 199.028 58.095 199.985 57.0412C201.356 56.9787 202.821 56.9787 204.32 57.0438C205.235 58.0053 206.114 58.9035 207.004 59.7901C207.036 59.8225 207.182 59.7413 207.275 59.713C207.275 61.1773 207.275 62.6415 207.275 64.2336C206.81 64.7805 206.324 65.1794 205.882 65.6215C190.095 81.4024 174.312 97.1872 158.528 112.972C156.426 115.073 156.45 115.474 158.198 117.993C162.048 123.538 164.807 129.569 166.274 136.191C167.329 140.95 167.666 145.775 167.303 150.586C166.541 160.711 163.057 169.854 156.776 177.904C151.436 184.75 144.715 189.782 136.792 193.207C133.068 194.817 129.18 195.975 125.12 196.452C124.925 196.475 124.75 196.664 124.631 196.877C119.86 196.979 115.024 196.979 110.124 196.876C108.905 196.513 107.748 196.261 106.594 195.99C101.581 194.813 96.7976 193.073 92.3095 190.494C86.7714 187.312 82.0374 183.198 78.0409 178.268C75.2258 174.796 72.759 171.033 71.2257 166.805C70.0016 163.43 69.1356 159.925 68.0818 156.487C67.8821 155.835 67.5473 155.225 67.2749 154.596C67.2749 149.668 67.2749 144.741 67.2749 139.685ZM155.474 158.407C156.061 154.841 156.825 151.292 157.165 147.703C157.361 145.634 157.086 143.454 156.642 141.407C155.91 138.03 155.212 134.576 153.891 131.409C150.719 123.807 145.543 117.787 138.551 113.324C132.238 109.295 125.317 107.347 117.911 107.058C115.862 106.978 113.791 107.357 111.735 107.568C107.519 108.002 103.531 109.312 99.7694 111.17C95.2665 113.394 91.3104 116.418 87.8985 120.145C84.6916 123.648 82.1524 127.562 80.416 131.975C78.1073 137.843 77.0269 143.872 77.6138 150.234C78.068 155.157 79.3237 159.798 81.4189 164.222C83.5242 168.667 86.4597 172.511 90.0421 175.91C92.6713 178.404 95.5328 180.555 98.73 182.183C105.556 185.657 112.752 187.343 120.502 186.638C125.471 186.186 130.157 184.927 134.622 182.816C139.99 180.279 144.455 176.568 148.207 171.976C151.471 167.981 153.837 163.518 155.474 158.407Z" fill="white"/>
<path d="M113.281 135.66C123.749 146.129 134.138 156.541 144.571 166.909C145.421 167.753 145.436 168.241 144.595 169.043C142.67 170.877 140.808 172.777 138.948 174.678C138.397 175.241 137.961 175.211 137.485 174.635C137.341 174.46 137.165 174.312 137.004 174.151C121.516 158.663 106.029 143.174 90.5414 127.686C89.0772 126.222 88.9369 126.098 90.2717 124.577C92.1052 122.486 94.1773 120.606 96.2163 118.566C102.026 124.386 107.619 129.989 113.281 135.66Z" fill="white"/>
</g>
<defs>
<clipPath id="clip0_1036_603">
<rect width="140" height="140" fill="white" transform="translate(67.0015 56.7052)"/>
</clipPath>
</defs>
</svg>
