<svg width="275" height="253" viewBox="0 0 275 253" fill="none" xmlns="http://www.w3.org/2000/svg">
<path d="M86.544 6.47754H84.9494L83.5651 7.26924L59.4824 21.0433L58.0868 21.8415L57.2773 23.2305L6.8185 109.812L6.00242 111.213L6.00241 112.834L6.0022 140.382L6.00218 142.003L6.81829 143.403L57.277 229.985L58.0865 231.374L59.4819 232.172L83.5643 245.947L84.9486 246.739H86.5433H187.461H189.055L190.44 245.947L214.522 232.173L215.918 231.375L216.727 229.986L267.186 143.404L268.002 142.003L268.002 140.383L268.002 112.834V111.213L267.186 109.813L216.728 23.231L215.918 21.842L214.523 21.0438L190.44 7.2693L189.056 6.47754H187.461H86.544Z" fill="#0C3845" stroke="#3BC7F4" stroke-width="12"/>
<g clip-path="url(#clip0_1036_586)">
<path d="M144.256 57.0115C144.517 57.1926 144.631 57.5133 144.786 57.5346C149.499 58.1827 153.967 59.6772 158.077 61.9924C161.023 63.6523 163.793 65.6816 166.453 67.7849C171.641 71.8877 175.331 77.1938 178.07 83.1707C179.836 87.0263 181.115 91.0486 181.55 95.2811C181.844 98.1388 182.212 101.032 182.063 103.883C181.713 110.557 180.052 116.919 176.848 122.851C173.573 128.914 169.184 133.944 163.631 138.044C158.742 141.654 153.332 144.031 147.503 145.546C146.309 145.857 145.062 145.972 143.835 146.147C142.804 146.295 142.211 146.865 142.205 147.899C142.184 152.089 142.177 156.28 142.209 160.47C142.218 161.667 143.01 162.023 144.114 162.02C150.126 162.002 156.139 161.997 162.151 162.019C164.257 162.027 166.042 162.851 166.952 164.792C168.333 167.735 166.612 171.802 162.699 171.84C156.642 171.898 150.583 171.854 144.525 171.856C142.707 171.857 142.198 172.355 142.197 174.143C142.194 179.654 142.141 185.166 142.221 190.677C142.258 193.271 141.819 195.517 139.383 196.929C137.907 197.011 136.351 197.011 134.668 197.011C134.248 196.582 133.993 196.12 133.656 195.73C132.818 194.759 132.326 193.711 132.335 192.373C132.375 186.407 132.354 180.44 132.352 174.473C132.351 172.283 131.931 171.855 129.803 171.855C123.882 171.855 117.961 171.871 112.04 171.848C109.277 171.838 107.744 170.361 107.232 168.307C106.589 165.726 107.764 163.431 110.147 162.518C110.991 162.194 111.95 162.04 112.858 162.033C118.642 161.991 124.427 162.012 130.211 162.011C131.83 162.011 132.347 161.497 132.35 159.841C132.358 156.334 132.353 152.827 132.352 149.32C132.352 146.686 132.026 146.337 129.445 145.874C121.932 144.524 115.263 141.359 109.271 136.637C103.82 132.342 99.7109 127.028 96.7419 120.802C94.8194 116.771 93.4631 112.551 92.9915 108.093C92.7275 105.597 92.3958 103.078 92.471 100.581C92.7022 92.91 94.6276 85.6996 98.6212 79.0614C100.631 75.7216 102.894 72.6116 105.674 69.8907C111.206 64.4774 117.619 60.5559 125.15 58.5862C126.681 58.1859 128.242 57.9031 129.784 57.5445C129.981 57.4986 130.148 57.3211 130.247 57.108C134.819 57.0115 139.473 57.0115 144.256 57.0115ZM111.571 77.3836C108.071 80.9356 105.562 85.1102 103.921 89.7967C102.311 94.3991 101.519 99.0967 101.953 104.03C102.318 108.175 103.242 112.11 104.937 115.893C107.276 121.113 110.684 125.489 115.133 129.078C117.932 131.336 120.978 133.149 124.351 134.393C129.585 136.323 134.926 137.274 140.553 136.625C144.319 136.19 147.938 135.32 151.357 133.77C156.868 131.272 161.51 127.642 165.194 122.775C169.327 117.316 171.611 111.154 172.225 104.41C172.547 100.884 172.295 97.3269 171.466 93.8313C169.545 85.7332 165.369 79.0209 158.874 73.8857C153.178 69.382 146.572 66.8699 139.314 66.3379C135.055 66.0257 130.859 66.6078 126.76 67.892C120.929 69.7188 115.902 72.8047 111.571 77.3836Z" fill="white"/>
</g>
<defs>
<clipPath id="clip0_1036_586">
<rect width="140" height="140" fill="white" transform="translate(67.001 56.738)"/>
</clipPath>
</defs>
</svg>
