<svg width="275" height="253" viewBox="0 0 275 253" fill="none" xmlns="http://www.w3.org/2000/svg">
<path d="M86.5435 6.51025H84.9489L83.5647 7.30196L59.4819 21.076L58.0863 21.8742L57.2768 23.2632L6.81802 109.845L6.00194 111.245L6.00192 112.866L6.00171 140.415L6.0017 142.036L6.8178 143.436L57.2765 230.018L58.086 231.407L59.4814 232.205L83.5638 245.979L84.9481 246.771H86.5428H187.46H189.055L190.439 245.98L214.522 232.205L215.917 231.407L216.727 230.018L267.186 143.436L268.002 142.036L268.002 140.415L268.002 112.867V111.246L267.186 109.845L216.727 23.2637L215.918 21.8747L214.522 21.0766L190.44 7.30201L189.055 6.51025H187.461H86.5435Z" fill="#0C3845" stroke="#3BC7F4" stroke-width="12"/>
<g clip-path="url(#clip0_1036_569)">
<path d="M67.2739 152.201C67.2739 147.182 67.2739 142.163 67.3894 137.014C67.6099 136.723 67.7764 136.574 67.8102 136.399C68.061 135.097 68.2187 133.774 68.5299 132.488C69.8587 126.996 71.9246 121.81 74.9137 116.99C77.9782 112.049 81.6478 107.624 86.1563 103.964C89.8183 100.991 93.8117 98.5136 98.1359 96.5551C103.531 94.1118 109.171 92.5069 115.036 92.1263C119.291 91.8501 123.591 91.8468 127.881 92.539C133.274 93.4092 138.435 94.9282 143.261 97.4123C146.482 99.0699 149.492 101.139 152.329 102.862C163.67 91.5221 175.075 80.1197 186.394 68.8021C177.863 68.8021 169.124 68.7902 160.384 68.8129C158.771 68.817 157.36 68.1867 156.323 67.1362C153.743 64.5226 154.147 59.1895 157.794 57.5699C157.931 57.5087 157.97 57.2246 158.055 57.0443C173.282 57.0443 188.509 57.0443 203.786 57.1258C204.878 58.2673 205.919 59.3294 206.973 60.3795C207.014 60.4207 207.171 60.3462 207.274 60.3256C207.274 75.5526 207.274 90.7797 207.192 106.056C206.93 106.348 206.737 106.583 206.57 106.835C204.628 109.765 202.115 109.955 199.588 109.332C196.931 108.676 195.516 106.426 195.516 103.418C195.516 95.3531 195.516 87.2879 195.516 79.2228C195.516 78.7598 195.516 78.2968 195.516 77.787C184.012 89.2917 172.653 100.652 161.358 111.948C162.98 114.516 164.874 117.176 166.418 120.026C169.729 126.138 171.709 132.751 172.179 139.649C172.493 144.261 172.28 148.99 171.623 153.569C170.818 159.178 168.87 164.514 166.081 169.525C163.043 174.982 159.366 179.866 154.624 183.98C150.652 187.425 146.337 190.25 141.556 192.428C137.202 194.412 132.702 195.826 127.969 196.518C127.768 196.547 127.609 196.862 127.43 197.044C122.503 197.044 117.575 197.044 112.602 196.945C111.964 196.727 111.37 196.616 110.779 196.49C105.183 195.299 99.7808 193.615 94.7351 190.81C89.3213 187.801 84.4887 184.147 80.4011 179.458C76.8906 175.431 73.9841 171.061 71.808 166.186C70.1018 162.365 68.7778 158.435 68.0723 154.298C67.9489 153.575 67.5471 152.899 67.2739 152.201ZM133.979 106.382C130.101 104.943 126.069 104.135 121.969 103.841C118.205 103.571 114.468 104.052 110.774 104.884C103.058 106.624 96.4374 110.396 90.9136 115.95C88.6226 118.254 86.7542 121.029 84.9587 123.764C81.109 129.627 79.321 136.229 79.1131 143.159C79.0098 146.604 79.5059 150.125 80.1768 153.523C81.7086 161.283 85.6234 167.873 91.1742 173.399C93.4765 175.691 96.2494 177.563 98.9868 179.354C104.852 183.19 111.45 184.994 118.379 185.205C121.824 185.31 125.344 184.811 128.743 184.142C136.504 182.615 143.094 178.7 148.621 173.151C150.914 170.85 152.789 168.078 154.577 165.34C158.518 159.308 160.182 152.533 160.494 145.402C160.556 143.974 160.413 142.522 160.225 141.099C159.911 138.732 159.696 136.321 159.066 134.031C156.852 125.981 152.65 119.148 146.24 113.705C142.606 110.619 138.639 108.143 133.979 106.382Z" fill="white"/>
</g>
<defs>
<clipPath id="clip0_1036_569">
<rect width="140" height="140" fill="white" transform="translate(67.0005 56.7709)"/>
</clipPath>
</defs>
</svg>
