<svg width="275" height="253" viewBox="0 0 275 253" fill="none" xmlns="http://www.w3.org/2000/svg">
<path d="M86.545 6.41187H84.9503L83.5661 7.20357L59.4834 20.9776L58.0878 21.7758L57.2783 23.1648L6.81948 109.747L6.0034 111.147L6.00339 112.768L6.00317 140.316L6.00316 141.937L6.81927 143.338L57.278 229.919L58.0874 231.308L59.4829 232.106L83.5653 245.881L84.9496 246.673H86.5443H187.462H189.056L190.441 245.881L214.523 232.107L215.919 231.309L216.728 229.92L267.187 143.338L268.003 141.938L268.003 140.317L268.003 112.768V111.147L267.187 109.747L216.729 23.1653L215.919 21.7763L214.524 20.9782L190.441 7.20362L189.057 6.41187H187.462H86.545Z" fill="#0C3845" stroke="#3BC7F4" stroke-width="12"/>
<g clip-path="url(#clip0_1036_620)">
<path d="M174.335 56.9458C174.339 63.7391 172.709 70.1333 169.188 75.9655C165.688 81.7618 160.855 86.2406 155.029 89.501C157.714 91.5591 160.45 93.2951 162.749 95.4892C168.255 100.744 171.83 107.159 173.374 114.662C174.987 122.503 174.146 130.063 170.906 137.376C168.799 142.129 165.81 146.265 161.933 149.685C156.782 154.229 150.866 157.329 143.995 158.397C143.906 158.411 143.816 158.421 143.728 158.44C141.377 158.974 141.377 158.975 141.377 161.493C141.377 166.592 141.377 171.691 141.377 176.941C146.109 176.941 150.774 176.941 155.516 176.941C155.516 179.715 155.516 182.34 155.516 185.117C150.891 185.117 146.227 185.117 141.377 185.117C141.377 189.073 141.377 192.881 141.377 196.818C138.728 196.946 136.079 196.946 133.302 196.946C133.174 193.083 133.174 189.22 133.174 185.21C128.418 185.21 123.756 185.21 119.026 185.21C119.026 182.439 119.026 179.815 119.026 177.043C123.674 177.043 128.336 177.043 133.067 177.043C133.113 176.649 133.169 176.391 133.169 176.134C133.175 170.76 133.155 165.386 133.191 160.012C133.197 159.035 132.921 158.735 131.895 158.627C127.401 158.156 123.213 156.63 119.293 154.438C115.909 152.545 112.838 150.199 110.212 147.318C105.598 142.257 102.456 136.41 101.218 129.658C100.71 126.888 100.317 124.027 100.422 121.229C100.723 113.176 103.226 105.867 108.263 99.4387C111.48 95.3345 115.379 92.1543 120.052 89.5488C107.756 82.2499 101.127 71.5438 100.635 57.0708C103.375 56.9458 106.115 56.9458 108.983 57.0687C109.243 60.2417 109.737 63.2183 110.707 66.1276C112.342 71.0304 115.234 75.0915 119.058 78.4677C121.89 80.9674 125.163 82.8707 128.785 83.9649C133.241 85.311 137.763 85.761 142.449 84.89C147.892 83.8783 152.602 81.5515 156.646 77.8741C159.833 74.9758 162.315 71.5405 163.857 67.463C165.141 64.0669 166.04 60.6186 165.713 56.9458C168.544 56.9458 171.375 56.9458 174.335 56.9458ZM109.388 127.571C109.473 127.825 109.587 128.072 109.637 128.332C110.633 133.478 113.132 137.882 116.638 141.661C119.974 145.255 124.061 147.79 128.798 149.242C134.61 151.022 140.414 151.067 146.163 149.117C154.018 146.453 159.727 141.338 163.137 133.741C165.508 128.458 166.324 122.981 165.18 117.244C163.24 107.511 157.766 100.544 148.811 96.347C143.459 93.838 137.858 93.2753 132.025 94.369C124.341 95.8098 118.363 99.86 113.96 106.162C109.515 112.526 107.932 119.632 109.388 127.571Z" fill="white"/>
</g>
<defs>
<clipPath id="clip0_1036_620">
<rect width="140" height="140" fill="white" transform="translate(67.002 56.6724)"/>
</clipPath>
</defs>
</svg>
