<svg width="312" height="67" viewBox="0 0 312 67" fill="none" xmlns="http://www.w3.org/2000/svg">
<path fill-rule="evenodd" clip-rule="evenodd" d="M101.68 7.14861L93.2508 0.121582H77.3293L75.4562 1.87834H39.3988L37.5257 0.121582H20.6677L0.063446 22.9594L36.1208 66.8783H52.9789L54.852 65.1216H75.4562L77.3293 66.8783H93.2508L101.68 59.8513H103.085L104.958 61.6081H149.912L150.849 60.7297H152.722L154.595 58.9729H156H157.405L159.278 60.7297H161.151L162.088 61.6081H207.042L208.915 59.8513H210.32L218.749 66.8783H234.671L236.544 65.1216H257.148L259.021 66.8783H275.879L311.937 22.9594L291.332 0.121582H274.474L272.601 1.87834H236.544L234.671 0.121582H218.749L210.32 7.14861H183.628L180.819 8.02699H156H131.181L128.372 7.14861H101.68ZM2.87311 22.9594L20.6677 3.6351H94.1873L101.68 9.78374H156H210.32L217.813 3.6351H291.332L309.127 22.9594L275.879 63.3648H217.813L210.32 57.2162H156H101.68L94.1873 63.3648H36.1208L2.87311 22.9594Z" fill="#3BC7F4"/>
<path d="M4.74622 23.2788L21.9659 5.39185H94.1023L101.549 11.3542H156H210.451L217.898 5.39185H290.034L307.254 23.2788L274.676 61.6081H217.898L210.451 55.6457H156H101.549L94.1023 61.6081H37.324L4.74622 23.2788Z" fill="#0C3845"/>
</svg>
