<svg width="275" height="253" viewBox="0 0 275 253" fill="none" xmlns="http://www.w3.org/2000/svg">
<path d="M86.543 6.60693H84.9484L83.5642 7.39864L59.4814 21.1727L58.0859 21.9708L57.2764 23.3599L6.81753 109.942L6.00145 111.342L6.00143 112.963L6.00122 140.512L6.00121 142.132L6.81731 143.533L57.276 230.114L58.0855 231.503L59.4809 232.302L83.5633 246.076L84.9476 246.868H86.5423H187.46H189.054L190.439 246.076L214.521 232.302L215.917 231.504L216.726 230.115L267.185 143.533L268.001 142.133L268.001 140.512L268.001 112.963V111.342L267.185 109.942L216.727 23.3604L215.917 21.9714L214.522 21.1732L190.439 7.39869L189.055 6.60693H187.46H86.543Z" fill="#0C3845" stroke="#3BC7F4" stroke-width="12"/>
<path d="M184.033 115.222C186.96 115.195 189.888 115.169 193.099 115.26C193.519 115.33 193.655 115.283 193.792 115.237C194.004 114.298 194.393 113.361 194.401 112.421C194.454 105.681 194.429 98.9405 194.429 92.0479C198.72 92.0479 202.781 92.0479 207 92.0479C207 103.589 207 115.098 207 126.845C202.936 126.845 198.869 126.845 194.554 126.845C194.554 130.801 194.554 134.53 194.554 138.558C190.182 138.558 186.044 138.558 181.763 138.558C181.763 146.435 181.763 154.009 181.763 161.917C185.913 161.917 190.041 161.917 194.305 161.917C194.305 165.966 194.305 169.685 194.305 173.546C185.893 173.546 177.56 173.546 169.058 173.546C169.058 165.834 169.058 158.244 169.058 150.424C147.744 150.424 126.597 150.424 105.18 150.424C105.18 158.092 105.18 165.746 105.18 173.542C96.5781 173.542 88.2441 173.542 79.7849 173.542C79.7849 169.721 79.7849 166.002 79.7849 162.071C83.8722 162.071 87.8655 162.071 92.0551 162.071C92.0551 154.227 92.0551 146.591 92.0551 138.734C88.061 138.734 84.077 138.734 79.7329 138.734C79.7329 134.751 79.7329 130.968 79.7329 126.984C75.3041 126.984 71.2336 126.984 67 126.984C67 115.269 67 103.766 67 92.0744C71.109 92.0744 75.2423 92.0744 79.627 92.0744C79.627 99.6922 79.627 107.27 79.627 114.942C83.9423 114.942 88.0111 114.942 92.3743 114.635C92.5694 111.514 92.4701 108.702 92.3708 105.889C92.3379 105.507 92.305 105.124 92.4939 104.524C96.2742 104.322 99.8328 104.33 103.391 104.357C104.964 104.369 105.936 103.909 105.877 102.044C105.779 98.9345 105.85 95.8192 105.85 92.3473C108.955 92.3473 111.838 92.2431 114.705 92.4031C115.724 92.46 116.707 93.1592 117.707 93.5652C117.736 96.1533 117.765 98.7414 117.65 101.645C117.576 102.242 117.645 102.524 117.714 102.806C117.714 102.806 117.809 103.041 117.848 103.375C118.478 103.924 119.069 104.322 119.661 104.324C130.895 104.362 142.129 104.365 153.362 104.32C154.009 104.317 154.654 103.842 155.299 103.587C155.428 103.542 155.557 103.497 156.028 103.362C156.344 102.776 156.317 102.278 156.29 101.781C156.258 99.2056 156.225 96.6302 156.404 93.7004C158.125 93.0779 159.633 92.596 161.146 92.5783C168.221 92.4955 168.177 92.5412 168.173 99.7082C168.172 100.923 168.747 102.138 169.056 103.352C169.056 103.352 169.121 103.347 169.142 103.518C169.505 103.648 169.847 103.606 170.189 103.565C170.571 103.529 170.952 103.493 171.593 103.689C174.55 103.802 177.248 103.683 179.946 103.565C180.169 103.535 180.393 103.505 180.784 103.678C181.138 104.215 181.325 104.55 181.511 104.884C181.54 105.108 181.569 105.332 181.395 105.87C181.294 108.83 181.396 111.476 181.498 114.122C181.732 114.46 181.966 114.799 182.457 115.296C183.154 115.377 183.594 115.299 184.033 115.222ZM117.932 124.588C117.932 121.476 117.932 118.364 117.932 115.323C113.393 115.323 109.259 115.323 105.167 115.323C105.167 119.289 105.167 123.074 105.167 126.951C109.037 126.951 112.704 126.889 116.367 126.981C117.89 127.019 118.049 126.246 117.932 124.588ZM156.187 120.029C156.187 122.29 156.187 124.552 156.187 126.827C160.617 126.827 164.676 126.827 168.877 126.827C168.877 122.918 168.877 119.134 168.877 115.297C164.596 115.297 160.467 115.297 156.187 115.297C156.187 116.812 156.187 118.166 156.187 120.029Z" fill="#02AD4D"/>
<path d="M117.751 93.3608C116.707 93.1593 115.724 92.4601 114.705 92.4032C111.838 92.2431 108.955 92.3473 105.85 92.3473C105.85 95.8193 105.779 98.9346 105.877 102.045C105.935 103.909 104.964 104.369 103.391 104.357C99.8328 104.33 96.2742 104.322 92.5441 104.337C93.0023 104.057 93.6257 103.492 94.263 103.476C97.7535 103.388 101.248 103.434 104.906 103.434C104.906 99.6276 104.906 95.99 104.906 92.0364C100.86 92.0364 96.7245 92.0364 92.416 92.0364C92.416 87.9302 92.416 84.1334 92.416 80.189C96.5925 80.189 100.74 80.189 105.125 80.189C105.125 83.9763 105.125 87.7005 105.125 91.8667C108.896 91.8667 112.445 91.8578 115.995 91.8731C116.87 91.8768 118.049 91.5337 117.751 93.3608Z" fill="#0CAF53"/>
<path d="M169.049 103.11C168.747 102.138 168.172 100.923 168.173 99.7082C168.177 92.5412 168.221 92.4955 161.146 92.5783C159.633 92.596 158.125 93.0779 156.451 93.4654C155.745 92.1375 156.416 91.8105 157.751 91.8306C161.318 91.8846 164.887 91.849 168.661 91.849C168.661 87.8902 168.661 84.1547 168.661 80.2284C173.086 80.2284 177.306 80.2284 181.714 80.2284C181.714 83.9903 181.714 87.7754 181.714 91.8736C177.578 91.8736 173.447 91.8736 169.041 91.8736C169.041 95.7416 169.041 99.305 169.049 103.11Z" fill="#10B055"/>
<path d="M155.066 103.52C154.654 103.842 154.009 104.317 153.362 104.32C142.129 104.365 130.895 104.362 119.661 104.325C119.069 104.323 118.478 103.924 117.852 103.502C128.709 103.339 139.601 103.383 150.493 103.428C151.94 103.434 153.386 103.445 155.066 103.52Z" fill="#10B055"/>
<path d="M92.315 106.124C92.4703 108.702 92.5696 111.514 92.5278 114.454C92.3442 111.84 92.3016 109.099 92.315 106.124Z" fill="#0CAF53"/>
<path d="M179.711 103.508C177.248 103.683 174.55 103.802 171.779 103.738C174.297 103.521 176.887 103.486 179.711 103.508Z" fill="#10B055"/>
<path d="M181.563 113.925C181.396 111.476 181.294 108.83 181.348 106.035C181.544 108.5 181.586 111.114 181.563 113.925Z" fill="#10B055"/>
<path d="M156.228 101.932C156.317 102.279 156.344 102.776 156.23 103.335C156.116 102.959 156.141 102.522 156.228 101.932Z" fill="#10B055"/>
<path d="M181.573 104.763C181.324 104.55 181.138 104.215 180.947 103.727C181.174 103.929 181.404 104.285 181.573 104.763Z" fill="#10B055"/>
<path d="M170.016 103.508C169.847 103.606 169.505 103.648 169.139 103.551C169.359 103.425 169.601 103.438 170.016 103.508Z" fill="#10B055"/>
<path d="M183.845 115.176C183.593 115.299 183.154 115.377 182.614 115.343C182.895 115.198 183.277 115.164 183.845 115.176Z" fill="#10B055"/>
<path d="M117.757 102.641C117.645 102.524 117.576 102.242 117.607 101.882C117.739 102.028 117.769 102.252 117.757 102.641Z" fill="#0CAF53"/>
<path d="M193.667 115.197C193.655 115.283 193.519 115.33 193.336 115.302C193.374 115.204 193.458 115.181 193.667 115.197Z" fill="#10B055"/>
<path d="M117.932 124.839C118.049 126.246 117.89 127.019 116.367 126.981C112.704 126.889 109.037 126.951 105.167 126.951C105.167 123.074 105.167 119.289 105.167 115.323C109.259 115.323 113.393 115.323 117.932 115.323C117.932 118.364 117.932 121.476 117.932 124.839Z" fill="#FBFDFC"/>
<path d="M156.187 119.775C156.187 118.167 156.187 116.812 156.187 115.297C160.466 115.297 164.596 115.297 168.877 115.297C168.877 119.135 168.877 122.918 168.877 126.827C164.676 126.827 160.617 126.827 156.187 126.827C156.187 124.552 156.187 122.29 156.187 119.775Z" fill="#F9FBFB"/>
</svg>
