<svg width="275" height="253" viewBox="0 0 275 253" fill="none" xmlns="http://www.w3.org/2000/svg">
<path d="M86.8179 6.3999H85.2233L83.8391 7.1916L59.7563 20.9656L58.3608 21.7638L57.5513 23.1528L7.09243 109.735L6.27635 111.135L6.27634 112.756L6.27612 140.305L6.27611 141.925L7.09222 143.326L57.5509 229.907L58.3604 231.296L59.7558 232.095L83.8382 245.869L85.2225 246.661H86.8172H187.735H189.329L190.714 245.869L214.796 232.095L216.192 231.297L217.001 229.908L267.46 143.326L268.276 141.926L268.276 140.305L268.276 112.756V111.135L267.46 109.735L217.002 23.1533L216.192 21.7644L214.797 20.9662L190.714 7.19166L189.33 6.3999H187.735H86.8179Z" fill="#0C3845" stroke="#3BC7F4" stroke-width="12"/>
<path d="M205.102 176.308C200.658 176.308 196.214 176.308 191.516 176.308C191.516 171.679 191.516 167.235 191.516 162.591C186.407 162.591 181.551 162.591 176.31 162.591C176.31 166.979 176.31 171.501 176.31 176.25C170.903 176.25 165.87 176.25 160.477 176.25C160.477 171.708 160.477 167.18 160.477 162.519C155.245 162.519 150.369 162.519 145.144 162.519C145.144 167.027 145.144 171.552 145.144 176.274C139.76 176.274 134.72 176.274 129.354 176.274C129.354 171.703 129.354 167.172 129.354 162.517C124.064 162.517 119.097 162.517 113.779 162.517C113.779 167.112 113.779 171.64 113.779 176.319C108.476 176.319 103.523 176.319 98.3149 176.319C98.3149 171.776 98.3149 167.327 98.3149 162.632C93.0325 162.632 87.9987 162.632 82.5657 162.632C82.5657 166.807 82.5657 170.95 82.2916 175.383C81.5227 175.887 81.0278 176.1 80.5329 176.313C80.2562 176.355 79.9796 176.397 79.3176 176.188C75.7093 176.062 72.4864 176.188 69.2634 176.314C69.1613 176.35 69.0591 176.386 68.699 176.125C68.3269 175.538 68.1137 175.248 68.113 174.958C68.0735 157.457 68.029 139.956 68.1191 122.456C68.1223 121.832 69.4449 120.722 70.2003 120.679C73.6274 120.485 77.0723 120.624 80.5089 120.553C80.9713 120.543 81.4229 120.016 81.8795 119.729C82.1062 117.403 82.4233 115.081 82.5344 112.749C82.648 110.363 82.5595 107.968 82.5595 105.207C87.7511 105.207 92.7916 105.207 98.1903 105.207C98.1903 100.322 98.1903 95.7985 98.1903 90.9558C103.505 90.9558 108.46 90.9558 113.608 90.9558C113.608 86.1769 113.608 81.7218 113.608 77.0173C118.845 77.0173 123.889 77.0173 129.225 77.0173C129.225 81.4622 129.225 86.0027 129.225 90.7656C134.549 90.7656 139.588 90.7656 144.951 90.7656C144.951 86.166 144.951 81.6383 144.951 76.9424C150.22 76.9424 155.17 76.9424 160.435 76.9424C160.435 81.5389 160.435 86.084 160.435 90.9862C165.783 90.9862 170.834 90.9862 176.134 90.9862C176.134 95.7872 176.134 100.231 176.134 105.028C181.327 105.028 186.269 105.028 191.497 105.028C191.497 109.003 191.45 112.627 191.526 116.248C191.549 117.32 191.921 118.385 192.47 119.794C196.4 120.287 199.995 120.588 203.585 120.537C205.803 120.506 206.405 121.271 206.396 123.414C206.324 139.949 206.38 156.484 206.303 173.019C206.298 174.117 205.52 175.212 205.102 176.308ZM176.139 122.891C176.139 121.781 176.139 120.671 176.139 119.546C165.506 119.546 155.264 119.546 145.042 119.546C145.042 124.388 145.042 129.019 145.042 133.663C155.457 133.663 165.684 133.663 176.139 133.663C176.139 130.117 176.139 126.804 176.139 122.891ZM122.775 119.346C114.596 119.346 106.417 119.346 98.265 119.346C98.265 124.427 98.265 129.062 98.265 133.664C108.705 133.664 118.945 133.664 129.162 133.664C129.162 128.801 129.162 124.171 129.162 119.346C127.108 119.346 125.25 119.346 122.775 119.346Z" fill="#EC2225"/>
<path d="M81.6386 119.635C81.4229 120.016 80.9713 120.543 80.5089 120.553C77.0723 120.624 73.6274 120.485 70.2003 120.679C69.4449 120.722 68.1223 121.832 68.1191 122.456C68.029 139.956 68.0735 157.457 68.113 174.958C68.1137 175.248 68.3269 175.538 68.5468 176.068C68.184 175.542 67.3089 174.778 67.306 174.01C67.2388 156.179 67.2661 138.347 67.5332 120.248C68.0494 119.882 68.3084 119.782 68.5674 119.682C71.9638 119.634 75.3602 119.586 79.0968 119.666C79.4371 119.794 79.6758 119.824 79.6758 119.824L79.8618 119.666C80.3738 119.624 80.8857 119.582 81.6386 119.635Z" fill="#E41715"/>
<path d="M205.384 176.371C205.52 175.212 206.298 174.117 206.303 173.019C206.38 156.484 206.324 139.949 206.396 123.414C206.405 121.271 205.803 120.506 203.585 120.537C199.995 120.588 196.4 120.287 192.707 119.924C196.4 119.657 200.193 119.6 204.442 119.715C205.554 119.913 206.209 119.939 206.864 119.965C206.954 120.887 207.121 121.81 207.122 122.732C207.138 139.632 207.154 156.532 207.086 173.431C207.082 174.491 208.117 176.391 205.384 176.371Z" fill="#E41715"/>
<path d="M69.5513 176.374C72.4865 176.188 75.7094 176.062 79.115 176.125C76.1448 176.353 72.9919 176.394 69.5513 176.374Z" fill="#E41715"/>
<path d="M206.759 119.782C206.209 119.939 205.554 119.913 204.734 119.782C205.264 119.651 205.959 119.625 206.759 119.782Z" fill="#EC2225"/>
<path d="M80.7698 176.369C81.0276 176.1 81.5225 175.887 82.2335 175.671C81.9687 175.92 81.4877 176.173 80.7698 176.369Z" fill="#E41715"/>
<path d="M68.4178 119.601C68.3082 119.782 68.0492 119.882 67.6465 119.974C67.7579 119.818 68.0132 119.669 68.4178 119.601Z" fill="#EC2225"/>
<path d="M79.7313 119.602C79.8616 119.666 79.6757 119.824 79.6757 119.824C79.6757 119.824 79.4369 119.794 79.3866 119.726C79.3364 119.658 79.6009 119.538 79.7313 119.602Z" fill="#EC2225"/>
<path d="M176.139 123.191C176.139 126.804 176.139 130.117 176.139 133.663C165.683 133.663 155.457 133.663 145.042 133.663C145.042 129.019 145.042 124.388 145.042 119.547C155.264 119.547 165.506 119.547 176.139 119.547C176.139 120.671 176.139 121.781 176.139 123.191Z" fill="#FDFCFC"/>
<path d="M123.084 119.346C125.25 119.346 127.108 119.346 129.162 119.346C129.162 124.171 129.162 128.801 129.162 133.664C118.945 133.664 108.705 133.664 98.2649 133.664C98.2649 129.062 98.2649 124.427 98.2649 119.346C106.417 119.346 114.596 119.346 123.084 119.346Z" fill="#FEFDFD"/>
</svg>
