<svg width="275" height="253" viewBox="0 0 275 253" fill="none" xmlns="http://www.w3.org/2000/svg">
<path d="M86.5433 6.34595H84.9486L83.5644 7.13765L59.4816 20.9117L58.0861 21.7099L57.2766 23.0989L6.81777 109.681L6.00169 111.081L6.00168 112.702L6.00146 140.251L6.00145 141.871L6.81756 143.272L57.2763 229.853L58.0857 231.242L59.4812 232.041L83.5636 245.815L84.9479 246.607H86.5426H187.46H189.055L190.439 245.815L214.522 232.041L215.917 231.243L216.727 229.854L267.185 143.272L268.001 141.872L268.001 140.251L268.002 112.702V111.081L267.186 109.681L216.727 23.0994L215.917 21.7104L214.522 20.9122L190.439 7.13771L189.055 6.34595H187.46H86.5433Z" fill="#0C3845" stroke="#3BC7F4" stroke-width="12"/>
<path d="M113.408 76.6078C118.508 76.6078 123.608 76.6078 129.09 76.6078C129.09 81.4724 129.09 86.0895 129.09 90.8471C134.443 90.8471 139.415 90.8471 144.771 90.8471C144.771 86.2873 144.771 81.6629 144.771 76.702C150.122 76.702 155.1 76.702 160.358 76.651C160.639 76.6 160.607 76.5669 160.607 76.5669C160.607 81.2545 160.607 85.942 160.607 90.9645C165.702 90.9645 170.771 90.9645 176.061 90.9645C176.061 95.8685 176.061 100.443 176.061 105.341C181.243 105.341 186.212 105.341 191.489 105.341C191.489 110.203 191.489 114.753 191.489 119.557C196.779 119.557 201.763 119.557 207 119.557C207 133.973 207 148.131 207 162.462C201.933 162.462 196.873 162.462 191.487 162.462C191.487 152.932 191.487 143.564 191.487 134.053C186.29 134.053 181.417 134.053 176.22 134.053C176.22 143.515 176.22 152.88 176.22 162.592C170.847 162.592 165.786 162.592 160.612 162.592C160.612 167.493 160.612 172.041 160.612 176.844C165.766 176.844 170.759 176.844 175.955 176.844C175.955 181.641 175.955 186.185 175.955 190.9C165.634 190.9 155.428 190.9 144.941 190.9C144.941 181.565 144.941 172.295 144.941 162.829C139.608 162.829 134.552 162.829 129.209 162.829C129.209 172.19 129.209 181.455 129.209 190.893C118.715 190.893 108.505 190.893 98.095 190.893C98.095 186.304 98.095 181.76 98.095 176.897C103.2 176.897 108.175 176.897 113.304 176.897C113.304 172.035 113.304 167.49 113.304 162.644C108.197 162.644 103.225 162.644 97.9313 162.644C97.9313 152.981 97.9313 143.609 97.9313 134.071C92.629 134.071 87.6516 134.071 82.3773 134.071C82.3773 143.487 82.3773 152.86 82.3773 162.432C77.1231 162.432 72.1596 162.432 67.0002 162.432C67.0002 148.321 67.0002 134.242 67.0002 119.8C71.9129 119.8 76.8738 119.8 82.1549 119.8C82.1549 114.899 82.1549 110.348 82.1549 105.549C87.4578 105.549 92.4365 105.549 97.7833 105.549C97.7833 100.672 97.7833 96.0314 97.7833 91.1092C103.114 91.1092 108.084 91.1092 113.494 91.1092C113.494 86.2648 113.494 81.7027 113.467 76.8609C113.44 76.5811 113.408 76.6078 113.408 76.6078ZM160.425 107.823C160.357 106.928 160.29 106.032 160.225 105.179C154.935 105.179 149.953 105.179 144.974 105.179C144.974 110.01 144.974 114.65 144.974 119.232C150.196 119.232 155.169 119.232 160.425 119.232C160.425 115.493 160.425 111.955 160.425 107.823ZM121.943 119.738C124.299 119.738 126.656 119.738 129.031 119.738C129.031 114.743 129.031 110.192 129.031 105.468C123.849 105.468 118.811 105.468 113.677 105.468C113.677 110.244 113.677 114.861 113.677 119.738C116.359 119.738 118.841 119.738 121.943 119.738Z" fill="#194BA1"/>
<path d="M113.454 76.5664C108.376 76.5517 103.283 76.5517 97.9727 76.5517C97.9727 71.7843 97.9727 67.1574 97.9727 62.3124C103.061 62.3124 108.194 62.3124 113.588 62.3124C113.588 66.9273 113.588 71.479 113.498 76.3192C113.408 76.6078 113.44 76.5811 113.454 76.5664Z" fill="#194BA1"/>
<path d="M160.657 76.6149C160.674 71.936 160.674 67.2422 160.674 62.3245C165.595 62.3245 170.662 62.3245 175.943 62.3245C175.943 66.95 175.943 71.5939 175.943 76.5707C170.963 76.5707 166.074 76.5707 160.896 76.5688C160.607 76.567 160.639 76.6001 160.657 76.6149Z" fill="#194BA1"/>
<path d="M160.425 108.12C160.425 111.955 160.425 115.493 160.425 119.232C155.169 119.232 150.196 119.232 144.974 119.232C144.974 114.65 144.974 110.01 144.974 105.179C149.953 105.179 154.935 105.179 160.225 105.179C160.29 106.032 160.358 106.928 160.425 108.12Z" fill="#F9FBFB"/>
<path d="M121.633 119.738C118.841 119.738 116.359 119.738 113.677 119.738C113.677 114.861 113.677 110.244 113.677 105.468C118.811 105.468 123.849 105.468 129.031 105.468C129.031 110.192 129.031 114.743 129.031 119.738C126.656 119.738 124.299 119.738 121.633 119.738Z" fill="#F9FBFB"/>
</svg>
