<svg width="275" height="253" viewBox="0 0 275 253" fill="none" xmlns="http://www.w3.org/2000/svg">
<path d="M87.1939 6.73706H85.5993L84.215 7.52876L60.1323 21.3028L58.7367 22.101L57.9272 23.49L7.46841 110.072L6.65233 111.472L6.65231 113.093L6.6521 140.642L6.65209 142.262L7.46819 143.663L57.9269 230.245L58.7364 231.634L60.1318 232.432L84.2142 246.206L85.5985 246.998H87.1932H188.111H189.705L191.09 246.206L215.172 232.432L216.568 231.634L217.377 230.245L267.836 143.663L268.652 142.263L268.652 140.642L268.652 113.093V111.473L267.836 110.072L217.378 23.4905L216.568 22.1015L215.173 21.3034L191.09 7.52882L189.706 6.73706H188.111H87.1939Z" fill="#0C3845" stroke="#3BC7F4" stroke-width="12"/>
<path d="M83.0219 138.556C82.2632 138.626 81.5046 138.697 80.3726 138.802C80.3726 146.519 80.3726 154.234 80.3726 162.05C75.9338 162.05 71.8733 162.05 67.6509 162.05C67.6509 150.438 67.6509 138.95 67.6509 127.116C71.1949 127.116 74.6682 127.046 78.1367 127.146C79.7895 127.194 80.4261 126.688 80.3631 124.973C80.2505 121.91 80.3314 118.84 80.3314 115.442C84.5392 115.442 88.5861 115.442 92.8709 115.442C92.8709 111.393 92.8709 107.669 92.8709 103.408C97.254 103.408 101.399 103.408 105.887 103.21C106.521 102.63 107.046 102.257 107.063 101.862C107.163 99.5286 107.221 97.1879 107.141 94.855C107.088 93.3045 107.636 92.7463 109.199 92.7939C112.258 92.887 115.321 92.8226 118.383 92.8234C118.408 95.404 118.433 97.9846 118.274 100.826C117.714 102.109 117.339 103.131 116.963 104.152C117.086 104.389 117.208 104.625 117.331 104.862C118.395 104.473 119.459 104.084 120.523 103.695C131.493 103.67 142.464 103.646 153.678 103.839C154.34 104.409 154.759 104.761 155.179 105.113C155.271 104.642 155.364 104.172 155.456 103.701C155.689 103.679 155.921 103.658 156.418 103.762C157.01 103.768 157.338 103.647 157.667 103.527C157.434 103.38 157.2 103.234 156.967 103.087C156.943 103.004 156.919 102.922 157.016 102.669C157.174 102.442 157.253 102.351 157.24 102.334C157.159 102.234 157.056 102.151 156.961 102.063C156.94 98.9707 156.919 95.8786 157.166 92.6424C160.563 92.6045 163.694 92.6692 166.818 92.8504C167.468 92.8881 168.654 93.3811 168.644 93.6231C168.513 96.639 169.868 99.861 167.085 103.239C168.414 103.431 169.371 103.569 170.329 103.707C173.257 103.68 176.186 103.653 179.358 103.835C180.032 104.221 180.461 104.529 180.897 104.54C181.327 104.55 181.764 104.259 182.197 104.1C182.197 104.1 182.165 104.121 182.138 104.32C182.137 107.815 182.163 111.11 182.189 114.405C182.933 114.742 183.667 115.343 184.421 115.37C187.619 115.484 190.822 115.428 194.321 115.567C194.72 115.818 194.847 115.897 194.998 115.937C194.998 119.514 194.998 123.091 194.998 126.968C199.331 126.968 203.389 126.968 207.651 126.968C207.651 138.758 207.651 150.248 207.651 161.958C203.604 161.958 199.494 161.958 195.098 161.958C195.098 154.24 195.098 146.593 195.098 138.675C191.083 138.675 187.342 138.595 183.613 138.774C183.141 138.796 182.365 140.162 182.352 140.916C182.245 147.494 182.28 154.075 182.062 160.91C180.763 161.464 179.675 161.763 178.588 162.061C176 162.091 173.412 162.121 170.573 161.966C170.153 161.566 169.984 161.352 169.816 161.137C169.816 157.725 169.816 154.313 169.816 150.689C148.434 150.689 127.343 150.689 105.941 150.689C105.877 151.382 105.802 152.194 105.598 153.265C105.533 153.668 105.597 153.811 105.66 153.954C105.684 154.337 105.709 154.72 105.554 155.4C105.469 156.314 105.562 156.934 105.655 157.553C105.679 157.78 105.703 158.008 105.54 158.521C105.101 159.897 104.849 160.987 104.597 162.077C101.845 162.103 99.0938 162.128 96.1049 161.918C95.7673 160.917 95.6673 160.152 95.5702 159.41C94.5008 159.486 93.767 159.538 93.0332 159.59C93.0011 159.362 92.969 159.134 93.1631 158.664C93.5197 158.21 93.7633 157.999 93.7644 157.787C93.7939 151.98 93.8313 146.173 93.7585 140.366C93.7509 139.766 93.0621 139.173 92.6894 138.577C92.6894 138.577 92.7524 138.579 92.7233 138.507C92.5518 138.478 92.4094 138.52 92.2669 138.562C89.5168 138.589 86.7667 138.616 83.7349 138.514C83.3094 138.442 83.1657 138.499 83.0219 138.556ZM156.883 119.916C156.883 122.26 156.883 124.605 156.883 126.95C161.381 126.95 165.434 126.95 169.573 126.95C169.573 123.05 169.573 119.332 169.573 115.479C165.3 115.479 161.178 115.479 156.883 115.479C156.883 116.92 156.883 118.181 156.883 119.916ZM105.632 117.311C105.632 120.513 105.632 123.715 105.632 126.937C110.127 126.937 114.255 126.937 118.433 126.937C118.433 123.03 118.433 119.319 118.433 115.321C114.471 115.321 110.659 115.274 106.852 115.386C106.432 115.399 106.04 116.318 105.632 117.311Z" fill="#8DC740"/>
<path d="M105.6 162.188C114.043 162.188 122.486 162.188 131.126 162.188C131.126 166.034 131.126 169.746 131.126 173.678C122.855 173.678 114.531 173.678 105.714 173.678C105.714 170.053 105.714 166.342 105.667 162.401C105.621 162.171 105.6 162.188 105.6 162.188Z" fill="#8FC843"/>
<path d="M169.821 162.153C169.821 165.969 169.821 169.785 169.821 173.745C161.112 173.745 152.788 173.745 144.299 173.745C144.299 169.93 144.299 166.223 144.299 162.155C152.704 162.155 161.041 162.155 169.61 162.163C169.841 162.171 169.821 162.153 169.821 162.153Z" fill="#8FC843"/>
<path d="M170.154 103.562C169.371 103.569 168.414 103.431 167.085 103.239C169.868 99.861 168.513 96.6389 168.644 93.6231C168.654 93.381 167.468 92.8881 166.818 92.8504C163.694 92.6692 160.563 92.6044 157.242 92.4135C159.299 92.1781 161.546 91.9823 163.797 91.891C165.565 91.8193 167.338 91.8767 169.376 91.8767C169.376 87.861 169.376 84.1443 169.376 80.2506C173.865 80.2506 178.08 80.2506 182.443 80.2506C182.443 84.1388 182.443 87.9324 182.443 92.0029C178.28 92.0029 174.208 92.0029 169.979 92.0029C169.979 95.9881 169.979 99.7021 170.154 103.562Z" fill="#93C94A"/>
<path d="M118.383 92.6154C115.321 92.8225 112.257 92.8869 109.199 92.7938C107.636 92.7462 107.088 93.3044 107.141 94.8549C107.221 97.1878 107.163 99.5285 107.062 101.861C107.045 102.257 106.52 102.63 106.063 103.056C105.895 99.5348 105.895 95.971 105.895 92.127C101.407 92.127 97.3519 92.127 93.085 92.127C93.085 88.0648 93.085 84.2813 93.085 80.2869C97.1938 80.2869 101.326 80.2869 105.695 80.2869C105.695 83.9942 105.695 87.7123 105.695 91.8891C109.116 91.8891 112.322 91.8503 115.526 91.9129C116.481 91.9316 117.431 92.2346 118.383 92.6154Z" fill="#8FC843"/>
<path d="M92.7405 138.811C93.0622 139.173 93.751 139.765 93.7586 140.366C93.8315 146.172 93.794 151.98 93.7645 157.787C93.7634 157.999 93.5198 158.21 93.2103 158.496C92.9514 152.062 92.8714 145.554 92.7405 138.811Z" fill="#8FC843"/>
<path d="M182.265 114.212C182.163 111.11 182.137 107.815 182.15 104.305C182.24 107.4 182.291 110.71 182.265 114.212Z" fill="#93C94A"/>
<path d="M92.9788 159.785C93.767 159.538 94.5008 159.486 95.5702 159.41C95.6673 160.152 95.7673 160.917 95.868 161.876C95.6384 162.099 95.4082 162.128 95.0045 161.949C94.6491 161.446 94.4671 161.152 94.285 160.857C94.1278 161.257 93.9707 161.658 93.8135 162.058C93.5171 161.366 93.2207 160.673 92.9788 159.785Z" fill="#8FC843"/>
<path d="M120.315 103.655C119.459 104.084 118.395 104.473 117.331 104.862C117.208 104.625 117.086 104.389 116.963 104.152C117.339 103.131 117.714 102.109 118.234 101.063C118.666 102.092 117.9 103.851 120.315 103.655Z" fill="#8FC843"/>
<path d="M178.797 162.105C179.675 161.763 180.763 161.464 182.028 161.149C181.768 163.449 180.01 161.612 178.797 162.105Z" fill="#8FC843"/>
<path d="M104.768 162.116C104.849 160.987 105.101 159.897 105.495 158.688C105.667 159.629 105.698 160.689 105.664 161.969C105.6 162.188 105.621 162.171 105.631 162.162C105.406 162.154 105.173 162.154 104.768 162.116Z" fill="#8FC843"/>
<path d="M155.265 103.66C155.364 104.172 155.271 104.642 155.179 105.113C154.76 104.761 154.34 104.409 153.916 103.879C154.298 103.673 154.686 103.646 155.265 103.66Z" fill="#8FC843"/>
<path d="M182.105 103.919C181.764 104.259 181.327 104.55 180.897 104.539C180.461 104.529 180.032 104.221 179.595 103.874C180.397 103.716 181.205 103.728 182.105 103.919Z" fill="#93C94A"/>
<path d="M93.9829 162.092C93.9706 161.658 94.1278 161.257 94.2849 160.857C94.467 161.152 94.6491 161.446 94.8342 161.909C94.6089 162.093 94.3806 162.109 93.9829 162.092Z" fill="#8DC740"/>
<path d="M156.879 103.175C157.2 103.234 157.434 103.38 157.667 103.527C157.338 103.647 157.01 103.768 156.593 103.778C156.591 103.527 156.687 103.392 156.879 103.175Z" fill="#8FC843"/>
<path d="M105.696 157.348C105.562 156.933 105.469 156.314 105.515 155.589C105.682 156.035 105.71 156.589 105.696 157.348Z" fill="#8FC843"/>
<path d="M169.771 161.311C169.985 161.351 170.153 161.566 170.337 161.924C170.265 162.092 170.179 162.118 169.957 162.148C169.821 162.153 169.841 162.171 169.852 162.179C169.817 161.953 169.772 161.72 169.771 161.311Z" fill="#8FC843"/>
<path d="M83.1514 138.59C83.1656 138.499 83.3094 138.442 83.4975 138.474C83.4549 138.584 83.3679 138.604 83.1514 138.59Z" fill="#8FC843"/>
<path d="M92.3806 138.602C92.4093 138.52 92.5518 138.478 92.7148 138.537C92.7355 138.639 92.4943 138.642 92.3806 138.602Z" fill="#8FC843"/>
<path d="M156.924 102.193C157.056 102.151 157.158 102.234 157.24 102.334C157.253 102.35 157.174 102.442 157.045 102.543C156.93 102.5 156.908 102.412 156.924 102.193Z" fill="#8FC843"/>
<path d="M105.692 153.822C105.596 153.811 105.533 153.668 105.559 153.478C105.673 153.518 105.698 153.605 105.692 153.822Z" fill="#8FC843"/>
<path d="M194.989 115.801C194.847 115.896 194.72 115.817 194.56 115.602C194.661 115.558 194.821 115.611 194.989 115.801Z" fill="#93C94A"/>
<path d="M156.883 119.679C156.883 118.181 156.883 116.92 156.883 115.479C161.177 115.479 165.3 115.479 169.573 115.479C169.573 119.332 169.573 123.05 169.573 126.95C165.434 126.95 161.38 126.95 156.883 126.95C156.883 124.605 156.883 122.26 156.883 119.679Z" fill="#FEFEF8"/>
<path d="M105.633 117.064C106.04 116.318 106.432 115.399 106.852 115.386C110.659 115.274 114.47 115.321 118.433 115.321C118.433 119.319 118.433 123.03 118.433 126.937C114.255 126.937 110.127 126.937 105.632 126.937C105.632 123.714 105.632 120.513 105.633 117.064Z" fill="#FBFDFC"/>
</svg>
