<svg width="275" height="253" viewBox="0 0 275 253" fill="none" xmlns="http://www.w3.org/2000/svg">
<path d="M86.5699 6.07422H84.9753L83.591 6.86592L59.5083 20.64L58.1127 21.4381L57.3032 22.8271L6.84438 109.409L6.0283 110.809L6.02829 112.43L6.02808 139.979L6.02806 141.6L6.84417 143L57.3029 229.582L58.1123 230.971L59.5078 231.769L83.5902 245.543L84.9745 246.335H86.5692H187.487H189.081L190.466 245.544L214.548 231.769L215.944 230.971L216.753 229.582L267.212 143L268.028 141.6L268.028 139.979L268.028 112.431V110.81L267.212 109.409L216.753 22.8276L215.944 21.4387L214.549 20.6405L190.466 6.86598L189.082 6.07422H187.487H86.5699Z" fill="#0C3845" stroke="#3BC7F4" stroke-width="12"/>
<path d="M102.189 158.252C102.189 153.092 102.189 147.931 102.189 142.274C90.2659 142.274 78.719 142.274 67.0269 142.274C67.0269 131.373 67.0269 120.969 67.0269 110.289C72.7894 110.289 78.3895 110.289 84.3974 110.289C84.3974 104.816 84.3974 99.5987 84.3974 94.0391C90.3835 94.0391 95.967 94.0391 101.893 94.0391C101.893 88.5744 101.893 83.451 101.893 77.9049C107.92 77.9049 113.616 77.9049 119.596 77.9049C119.596 72.4741 119.596 67.4645 119.596 62.2269C131.342 62.2269 142.788 62.2269 154.551 62.2269C154.551 67.3497 154.551 72.3548 154.551 77.7596C160.424 77.7596 165.998 77.7596 171.926 77.7596C171.926 83.2595 171.926 88.3662 171.926 93.8768C177.956 93.8768 183.643 93.8768 189.605 93.8768C189.605 99.4061 189.605 104.536 189.605 110.128C195.543 110.128 201.218 110.128 207.027 110.128C207.027 121 207.027 131.405 207.027 142.169C195.393 142.169 183.923 142.169 172.072 142.169C172.072 147.539 172.072 152.558 172.073 157.897C172.074 158.217 172.09 158.18 171.764 158.251C165.758 158.296 160.079 158.27 154.469 157.917C154.538 152.576 154.538 147.562 154.538 142.397C142.687 142.397 131.156 142.397 119.282 142.397C119.282 147.72 119.282 152.821 119.282 158.18C113.341 158.18 107.742 158.18 102.147 158.203C102.152 158.225 102.189 158.252 102.189 158.252ZM158.36 110.028C157.121 110.028 155.882 110.028 154.597 110.028C154.597 115.674 154.597 120.789 154.597 126.062C160.487 126.062 166.184 126.062 171.97 126.062C171.97 120.654 171.97 115.448 171.97 110.028C167.489 110.028 163.27 110.028 158.36 110.028ZM101.991 116.222C101.991 119.47 101.991 122.717 101.991 125.972C108.127 125.972 113.799 125.972 119.424 125.972C119.424 120.554 119.424 115.432 119.424 110.317C113.513 110.317 107.833 110.317 101.991 110.317C101.991 112.25 101.991 113.887 101.991 116.222Z" fill="#F04424"/>
<path d="M154.43 174.43C142.96 174.43 131.491 174.43 119.684 174.43C119.684 179.904 119.684 185.007 119.684 190.442C113.764 190.442 108.175 190.442 102.519 190.131C102.336 189.638 102.22 189.457 102.103 189.275C102.07 184.537 102.037 179.798 102.085 174.754C102.165 174.448 102.142 174.485 102.473 174.464C107.585 174.443 112.366 174.513 117.142 174.378C118.031 174.352 118.897 173.503 120.048 173.15C121.581 173.427 122.839 173.719 124.099 173.727C131.699 173.77 139.301 173.806 146.901 173.715C149.422 173.685 151.938 173.273 154.515 173.277C154.508 173.839 154.442 174.16 154.391 174.47C154.407 174.46 154.43 174.43 154.43 174.43Z" fill="#EE4627"/>
<path d="M172.058 158.229C177.76 158.241 183.479 158.241 189.716 158.241C189.716 163.648 189.716 168.737 189.716 174.146C189.715 174.465 189.743 174.436 189.743 174.436C184.06 174.447 178.377 174.459 172.376 174.464C172.058 174.459 172.091 174.482 172.075 174.15C172.069 168.605 172.079 163.393 172.09 158.18C172.09 158.18 172.074 158.217 172.058 158.229Z" fill="#EE4627"/>
<path d="M102.181 174.432C96.513 174.433 90.8287 174.449 84.8275 174.45C84.5108 174.436 84.5405 174.466 84.5405 174.466C84.5405 169.228 84.5405 163.991 84.5405 158.331C90.3706 158.331 95.95 158.331 101.859 158.291C102.189 158.252 102.151 158.225 102.069 158.528C102.038 164.049 102.09 169.267 102.142 174.485C102.142 174.485 102.165 174.448 102.181 174.432Z" fill="#EE4829"/>
<path d="M172.044 174.444C172.03 179.598 172.03 184.767 172.03 190.241C166.269 190.241 160.612 190.241 154.538 190.241C154.538 185.137 154.538 180.112 154.484 174.759C154.43 174.43 154.407 174.46 154.724 174.456C160.725 174.462 166.408 174.472 172.092 174.482C172.092 174.482 172.058 174.459 172.044 174.444Z" fill="#EE4829"/>
<path d="M84.496 174.421C84.4809 179.646 84.4809 184.885 84.4809 190.332C78.5366 190.332 72.8731 190.332 67.0276 190.332C67.0276 185.059 67.0276 179.97 67.0276 174.458C72.7224 174.458 78.2994 174.458 84.2086 174.462C84.5408 174.466 84.5112 174.436 84.496 174.421Z" fill="#EE4627"/>
<path d="M189.701 174.479C195.398 174.493 201.11 174.493 207.014 174.493C207.014 179.843 207.014 184.939 207.014 190.294C201.415 190.294 195.859 190.294 189.698 190.294C189.698 185.277 189.698 180.188 189.721 174.767C189.743 174.436 189.716 174.465 189.701 174.479Z" fill="#EE4829"/>
<path d="M102.064 189.464C102.22 189.457 102.336 189.638 102.345 189.897C102.166 189.867 102.095 189.76 102.064 189.464Z" fill="#EE4829"/>
<path d="M102.473 174.464C102.09 169.267 102.038 164.049 102.064 158.506C107.741 158.18 113.341 158.18 119.282 158.18C119.282 152.821 119.282 147.72 119.282 142.397C131.156 142.397 142.687 142.397 154.538 142.397C154.538 147.562 154.538 152.576 154.485 157.906C154.431 158.222 154.431 158.182 154.105 158.251C142.515 158.319 131.251 158.319 119.774 158.319C119.774 163.465 119.774 168.25 119.774 173.034C118.897 173.503 118.031 174.352 117.142 174.378C112.366 174.513 107.585 174.443 102.473 174.464Z" fill="white"/>
<path d="M172.075 174.15C166.408 174.472 160.725 174.462 154.708 174.466C154.442 174.159 154.509 173.839 154.568 172.95C154.518 167.649 154.475 162.916 154.431 158.182C154.431 158.182 154.432 158.222 154.416 158.233C160.079 158.27 165.758 158.296 171.764 158.251C172.08 163.393 172.069 168.605 172.075 174.15Z" fill="#FDF9F8"/>
<path d="M158.705 110.028C163.269 110.028 167.488 110.028 171.969 110.028C171.969 115.448 171.969 120.654 171.969 126.062C166.183 126.062 160.486 126.062 154.596 126.062C154.596 120.789 154.596 115.674 154.596 110.028C155.882 110.028 157.121 110.028 158.705 110.028Z" fill="#FDFCFC"/>
<path d="M101.991 115.873C101.991 113.887 101.991 112.25 101.991 110.318C107.833 110.318 113.513 110.318 119.424 110.318C119.424 115.432 119.424 120.554 119.424 125.972C113.799 125.972 108.127 125.972 101.991 125.972C101.991 122.717 101.991 119.47 101.991 115.873Z" fill="#FDF9F8"/>
<path d="M154.105 158.25C154.474 162.916 154.518 167.649 154.508 172.709C151.938 173.273 149.422 173.685 146.901 173.715C139.301 173.806 131.7 173.77 124.099 173.727C122.839 173.719 121.582 173.427 120.048 173.15C119.774 168.25 119.774 163.465 119.774 158.319C131.251 158.319 142.515 158.319 154.105 158.25Z" fill="#EF4526"/>
</svg>
