<svg width="275" height="253" viewBox="0 0 275 253" fill="none" xmlns="http://www.w3.org/2000/svg">
<path d="M86.5435 6.08472H84.9489L83.5647 6.87642L59.4819 20.6505L58.0863 21.4486L57.2768 22.8376L6.81802 109.42L6.00194 110.82L6.00192 112.441L6.00171 139.989L6.0017 141.61L6.8178 143.01L57.2765 229.592L58.086 230.981L59.4814 231.779L83.5638 245.554L84.9481 246.346H86.5428H187.46H189.055L190.439 245.554L214.522 231.78L215.917 230.982L216.727 229.593L267.186 143.011L268.002 141.611L268.002 139.99L268.002 112.441V110.82L267.186 109.42L216.727 22.8381L215.918 21.4492L214.522 20.651L190.44 6.87648L189.055 6.08472H187.461H86.5435Z" fill="#0C3845" stroke="#3BC7F4" stroke-width="12"/>
<path d="M139.19 69.1937C151.527 69.1936 163.551 69.1936 176.003 69.1936C176.003 73.8856 176.003 78.4142 176.003 83.2595C181.291 83.2595 186.159 83.2595 191.357 83.2595C191.357 88.1158 191.357 92.6573 191.357 97.6412C196.723 97.6412 201.771 97.6412 207 97.6412C207 126.488 207 154.887 207 183.47C201.871 183.47 196.898 183.47 191.504 183.47C191.504 178.804 191.504 174.16 191.504 169.367C186.221 169.367 181.356 169.367 176.19 169.367C176.19 174.062 176.19 178.615 176.19 183.418C170.849 183.418 165.804 183.418 160.447 183.418C160.447 178.787 160.447 174.232 160.447 169.446C155.195 169.446 150.243 169.446 145.006 169.446C145.006 173.985 145.006 178.542 145.006 183.375C139.683 183.375 134.63 183.375 129.291 183.375C129.291 178.883 129.291 174.325 129.291 169.491C123.972 169.491 118.927 169.491 113.571 169.491C113.571 174.046 113.571 178.6 113.571 183.403C108.313 183.403 103.353 183.403 97.9718 183.403C97.9718 178.854 97.9718 174.218 97.9718 169.398C92.582 169.398 87.6071 169.398 82.2077 169.398C82.2077 174.069 82.2077 178.71 82.2077 183.497C76.9221 183.497 72.0585 183.497 67.0005 183.497C67.0005 154.961 67.0005 126.558 67.0005 97.8211C71.9444 97.8211 76.8204 97.8211 82.1812 97.8211C82.1812 94.7217 82.1811 91.9449 82.1812 89.168C82.1814 83.2949 82.1814 83.2949 88.2186 83.2948C91.2486 83.2948 94.2785 83.2948 97.7511 83.2948C97.7511 78.6427 97.7511 74.1116 97.7511 69.1938C111.753 69.1938 125.314 69.1938 139.19 69.1937ZM160.548 119.274C160.548 116.922 160.548 114.569 160.548 111.996C165.952 111.996 170.835 111.996 175.841 111.996C175.841 107.145 175.841 102.531 175.841 98.0002C165.384 98.0002 155.196 98.0002 145.034 98.0002C145.034 107.515 145.034 116.777 145.034 126.096C150.278 126.096 155.323 126.096 160.548 126.096C160.548 123.849 160.548 121.87 160.548 119.274ZM106.208 126.361C108.562 126.361 110.916 126.361 113.599 126.361C113.599 121.319 113.599 116.778 113.599 111.925C118.889 111.925 123.843 111.925 128.859 111.925C128.859 107.057 128.859 102.52 128.859 97.8878C118.477 97.8878 108.293 97.8878 97.9399 97.8878C97.9399 107.391 97.9399 116.71 97.9399 126.361C100.62 126.361 103.105 126.361 106.208 126.361Z" fill="#F3D418"/>
<path d="M160.548 119.582C160.548 121.87 160.548 123.849 160.548 126.096C155.323 126.096 150.278 126.096 145.034 126.096C145.034 116.777 145.034 107.515 145.034 98.0002C155.196 98.0002 165.384 98.0002 175.841 98.0002C175.841 102.531 175.841 107.145 175.841 111.996C170.835 111.996 165.952 111.996 160.548 111.996C160.548 114.569 160.548 116.922 160.548 119.582Z" fill="#FEFEF8"/>
<path d="M105.898 126.361C103.104 126.361 100.62 126.361 97.9397 126.361C97.9397 116.71 97.9397 107.391 97.9397 97.8877C108.293 97.8877 118.476 97.8877 128.859 97.8877C128.859 102.52 128.859 107.057 128.859 111.925C123.842 111.925 118.889 111.925 113.599 111.925C113.599 116.778 113.599 121.319 113.599 126.361C110.916 126.361 108.562 126.361 105.898 126.361Z" fill="#FEFEF8"/>
</svg>
