<svg width="275" height="254" viewBox="0 0 275 254" fill="none" xmlns="http://www.w3.org/2000/svg">
<path d="M86.5428 6.86816H84.9482L83.5639 7.65987L59.4812 21.4339L58.0856 22.2321L57.2761 23.6211L6.81728 110.203L6.0012 111.603L6.00119 113.224L6.00098 140.773L6.00096 142.394L6.81707 143.794L57.2758 230.376L58.0852 231.765L59.4807 232.563L83.5631 246.337L84.9474 247.129H86.5421H187.46H189.054L190.438 246.337L214.521 232.563L215.917 231.765L216.726 230.376L267.185 143.794L268.001 142.394L268.001 140.773L268.001 113.224V111.604L267.185 110.203L216.726 23.6216L215.917 22.2326L214.521 21.4345L190.439 7.65992L189.055 6.86816H187.46H86.5428Z" fill="#0C3845" stroke="#3BC7F4" stroke-width="12"/>
<path d="M160.591 148.499C160.59 153.077 160.59 157.656 160.59 162.505C155.256 162.505 150.233 162.505 144.91 162.505C144.91 157.885 144.91 153.349 144.91 148.661C139.652 148.661 134.688 148.661 129.424 148.661C129.424 153.213 129.424 157.756 129.424 162.53C124.088 162.53 119.043 162.53 113.678 162.53C113.678 157.964 113.678 153.432 113.678 148.701C108.418 148.701 103.471 148.701 98.1227 148.701C98.1227 153.106 98.1227 157.464 97.8137 161.954C92.6224 161.934 87.7401 161.782 82.8579 161.63C82.8226 161.2 82.7872 160.77 82.8445 159.896C82.9012 158.503 82.8654 157.553 82.8296 156.603C82.7795 155.143 82.7295 153.683 82.9306 151.801C83.4406 149.487 84.5709 149.069 86.3767 149.071C89.8097 149.075 93.2431 148.773 96.6763 148.598C97.1438 148.175 98.007 147.762 98.0173 147.329C98.1191 143.081 98.0787 138.829 98.0787 134.329C92.7943 134.329 87.8306 134.329 82.6475 134.329C82.6475 124.758 82.6475 115.44 82.6475 105.815C87.6555 105.815 92.619 105.815 97.9459 105.815C97.9459 100.997 97.9459 96.4649 97.9459 91.6305C103.251 91.6305 108.202 91.6305 113.504 91.6305C113.504 86.7063 113.504 82.0748 113.504 77.27C129.25 77.27 144.642 77.27 160.398 77.27C160.398 81.9288 160.398 86.5639 160.398 91.4287C165.729 91.4287 170.703 91.4287 176.083 91.4287C176.083 95.1669 176.083 98.6774 175.815 102.549C174.382 103.492 173.225 104.557 172.049 104.578C164.023 104.727 155.993 104.612 147.965 104.713C146.95 104.726 145.945 105.501 144.934 106.216C144.933 110.856 144.933 115.204 144.933 119.803C155.17 119.803 165.055 119.812 174.939 119.771C175.362 119.77 175.782 119.304 176.387 118.926C176.771 118.034 177.146 117.27 177.141 116.508C177.124 114.022 177.024 111.533 176.847 109.053C176.714 107.188 177.374 106.41 179.324 106.492C182.236 106.615 185.159 106.596 188.073 106.498C189.871 106.438 190.717 106.919 190.691 108.927C190.599 116.01 190.64 123.095 190.663 130.18C190.671 132.469 189.821 133.619 187.315 133.507C183.904 133.354 180.471 133.333 177.07 133.577C176.283 133.633 174.996 134.96 174.953 135.757C174.735 139.759 174.853 143.78 174.853 148.185C170.27 147.852 165.666 147.505 161.058 147.237C160.927 147.23 160.747 148.06 160.591 148.499ZM129.267 108.795C129.218 107.883 129.169 106.971 129.113 105.917C118.772 105.917 108.609 105.917 98.3492 105.917C98.3492 110.585 98.3492 115.101 98.3492 119.596C108.74 119.596 118.898 119.596 129.267 119.596C129.267 116.052 129.267 112.731 129.267 108.795Z" fill="#EC1777"/>
<path d="M177.495 148.614C182.151 148.614 186.807 148.614 191.743 148.614C191.743 153.249 191.743 157.693 191.743 162.51C196.943 162.51 201.877 162.51 207 162.51C207 167.517 207 172.149 207 176.987C201.857 176.987 196.821 176.987 191.456 176.987C191.456 172.352 191.456 167.819 191.456 162.9C187.416 162.9 183.695 162.9 179.884 162.686C182.287 162.406 184.789 162.186 187.272 162.32C189.538 162.442 190.124 161.534 190.076 159.417C190.023 157.048 190.448 154.671 190.493 152.295C190.53 150.337 189.921 149.007 187.43 149.062C184.123 149.136 180.807 148.783 177.495 148.614Z" fill="#EA227B"/>
<path d="M82.7126 161.872C87.7404 161.782 92.6226 161.934 97.7013 162.173C94.741 162.43 91.5855 162.634 88.4269 162.761C86.686 162.832 84.9398 162.774 82.9113 162.774C82.9113 167.591 82.9113 172.121 82.9113 176.918C77.5032 176.918 72.3747 176.918 66.9995 176.918C66.9995 172.349 66.9995 167.727 66.9995 162.661C71.0508 162.661 75.1749 162.699 79.2975 162.636C80.3897 162.62 81.4773 162.296 82.7126 161.872Z" fill="#EB1C79"/>
<path d="M177.449 148.583C180.806 148.783 184.123 149.136 187.429 149.062C189.921 149.007 190.529 150.337 190.493 152.295C190.448 154.671 190.022 157.048 190.076 159.417C190.124 161.534 189.538 162.442 187.272 162.32C184.789 162.186 182.287 162.406 179.595 162.636C179.109 162.829 178.822 162.857 178.161 162.665C177.48 161.423 176.906 160.4 176.913 159.382C176.937 155.789 177.16 152.198 177.307 148.606C177.307 148.606 177.403 148.552 177.449 148.583Z" fill="#EC1777"/>
<path d="M177.092 148.544C177.16 152.198 176.937 155.789 176.913 159.382C176.906 160.4 177.48 161.423 177.947 162.622C176.395 163.245 175.648 162.711 175.697 160.82C175.799 156.89 175.728 152.956 175.728 148.51C170.804 148.51 165.99 148.51 160.884 148.504C160.748 148.06 160.927 147.23 161.058 147.238C165.666 147.505 170.27 147.852 174.853 148.185C174.853 143.78 174.735 139.759 174.953 135.757C174.996 134.96 176.283 133.633 177.07 133.577C180.471 133.333 183.904 133.354 187.315 133.507C189.821 133.62 190.671 132.469 190.663 130.18C190.64 123.095 190.599 116.01 190.691 108.927C190.717 106.92 189.871 106.438 188.073 106.498C185.159 106.596 182.236 106.616 179.324 106.493C177.374 106.41 176.715 107.188 176.847 109.053C177.024 111.533 177.124 114.022 177.141 116.508C177.146 117.27 176.771 118.034 176.326 118.705C176.082 114.398 176.082 110.184 176.082 105.924C165.334 105.924 155.135 105.924 144.936 105.924C145.945 105.502 146.951 104.726 147.965 104.713C155.993 104.612 164.023 104.727 172.049 104.578C173.225 104.557 174.382 103.493 175.757 102.836C176.122 103.656 176.278 104.55 176.473 105.668C181.466 105.668 186.32 105.668 191.349 105.668C191.349 115.253 191.349 124.58 191.349 134.259C186.408 134.259 181.468 134.259 175.805 134.259C176.182 139.256 176.529 143.869 177.092 148.544Z" fill="#EA227B"/>
<path d="M96.3881 148.551C93.2434 148.773 89.81 149.075 86.377 149.071C84.5713 149.069 83.4409 149.487 82.9838 151.532C82.6838 150.786 82.5817 149.888 82.4246 148.504C87.1454 148.504 91.6225 148.504 96.3881 148.551Z" fill="#EB1C79"/>
<path d="M82.7579 156.799C82.8659 157.553 82.9017 158.502 82.9015 159.687C82.8056 158.946 82.7457 157.97 82.7579 156.799Z" fill="#EB1C79"/>
<path d="M129.267 109.102C129.267 112.731 129.267 116.052 129.267 119.596C118.899 119.596 108.74 119.596 98.3494 119.596C98.3494 115.101 98.3494 110.585 98.3494 105.917C108.61 105.917 118.772 105.917 129.113 105.917C129.17 106.971 129.218 107.883 129.267 109.102Z" fill="#FEFDFD"/>
<path d="M144.935 106.216C155.135 105.924 165.334 105.924 176.083 105.924C176.083 110.183 176.083 114.398 176.144 118.833C175.783 119.304 175.362 119.769 174.939 119.771C165.055 119.812 155.171 119.803 144.934 119.803C144.934 115.204 144.934 110.856 144.935 106.216Z" fill="#FEFDFD"/>
</svg>
