<svg width="275" height="254" viewBox="0 0 275 254" fill="none" xmlns="http://www.w3.org/2000/svg">
<path d="M86.5438 6.93213H84.9491L83.5649 7.72383L59.4821 21.4979L58.0866 22.296L57.2771 23.6851L6.81826 110.267L6.00218 111.667L6.00217 113.288L6.00195 140.837L6.00194 142.458L6.81805 143.858L57.2768 230.44L58.0862 231.829L59.4817 232.627L83.5641 246.401L84.9483 247.193H86.5431H187.461H189.055L190.439 246.401L214.522 232.627L215.918 231.829L216.727 230.44L267.186 143.858L268.002 142.458L268.002 140.837L268.002 113.288V111.668L267.186 110.267L216.727 23.6856L215.918 22.2966L214.522 21.4984L190.44 7.72389L189.056 6.93213H187.461H86.5438Z" fill="#0C3845" stroke="#3BC7F4" stroke-width="12"/>
<path d="M165.06 162.325C165.031 159.476 165.001 156.628 165.132 153.398C165.008 152.696 164.727 152.102 164.436 152.098C161.739 152.055 159.041 152.16 156.343 152.131C153.2 152.097 152.036 150.881 151.979 147.685C151.951 146.102 152.094 144.506 151.929 142.941C151.831 142.017 151.283 141.141 150.905 140.249C150.872 140.255 150.878 140.188 150.809 139.973C150.159 139.555 149.578 139.18 148.996 139.177C141.016 139.138 133.037 139.12 125.058 139.186C123.918 139.195 122.782 139.671 122.04 139.84C122.04 141.836 122.04 143.415 122.04 144.994C122.04 151.805 121.707 152.093 115.014 152.174C113.031 152.198 111.052 152.592 109.072 152.816C109.072 152.816 109.081 152.747 108.878 152.781C108.423 153.628 107.994 154.433 107.951 155.258C107.845 157.295 108.042 159.351 107.858 161.376C107.776 162.278 107.071 163.124 106.648 163.995C106.802 164.053 106.956 164.11 107.109 164.168C107.007 164.648 106.904 165.128 106.801 165.607C106.546 165.632 106.291 165.656 105.836 165.511C105.546 165.205 105.456 165.07 105.367 164.935C105.274 165.159 105.18 165.384 105.087 165.609C102.244 165.636 99.4009 165.663 96.1983 165.535C95.5434 165.521 95.2483 165.662 94.9532 165.802C94.9532 169.93 94.9532 174.058 94.9532 178.382C85.5603 178.382 76.3895 178.382 67.001 178.382C67.001 174.3 67.001 170.216 67.001 165.832C71.4173 165.832 75.8807 165.832 80.6342 165.832C80.6342 161.462 80.6342 157.37 80.6342 152.928C85.4594 152.928 90.009 152.928 94.7324 152.928C94.7324 148.581 94.7324 144.586 94.7324 140.261C87.9021 140.261 81.0912 140.261 74.0769 140.261C74.0769 127.207 74.0769 114.477 74.0769 101.475C78.5081 101.475 82.8928 101.475 87.6452 101.475C87.6452 97.1394 87.6452 93.0631 87.6452 88.7213C94.8426 88.7213 101.672 88.7213 108.769 88.7213C108.769 84.3614 108.769 80.264 108.769 75.9508C127.594 75.9508 146.146 75.9508 164.945 75.9508C164.945 80.1294 164.945 84.2339 164.945 88.6347C172.001 88.6347 178.822 88.6347 185.921 88.6347C185.921 92.9217 185.921 96.9211 185.921 101.304C190.724 101.304 195.265 101.304 199.975 101.304C199.975 114.351 199.975 127.01 199.975 139.99C193.174 139.99 186.361 139.99 179.328 139.99C179.328 144.37 179.328 148.436 179.328 152.813C183.86 152.813 188.325 152.813 193.138 152.813C193.138 157.133 193.138 161.15 193.194 165.59C193.985 165.939 194.721 165.865 195.457 165.79C198.12 165.763 200.784 165.736 203.867 165.892C205.785 166.193 206.335 166.958 206.242 168.484C206.116 170.547 206.116 172.628 206.236 174.691C206.365 176.925 205.24 177.291 203.306 177.28C196.279 177.236 189.25 177.392 182.224 177.318C181.371 177.309 179.836 176.411 179.795 175.84C179.56 172.569 179.681 169.272 179.681 165.791C179.918 165.807 179.469 165.777 179.021 165.747C179.021 165.747 179.075 165.715 179.058 165.568C178.497 165.484 177.953 165.548 177.409 165.612C174.56 165.638 171.712 165.665 168.468 165.52C167.379 165.226 166.685 165.103 166.658 165.099C165.971 163.905 165.515 163.115 165.06 162.325ZM108.923 107.242C108.923 109.555 108.923 111.868 108.923 114.169C113.825 114.169 118.347 114.169 122.837 114.169C122.837 109.835 122.837 105.754 122.837 101.576C118.184 101.576 113.72 101.576 108.923 101.576C108.923 103.367 108.923 105.026 108.923 107.242ZM156.794 101.45C154.862 101.45 152.93 101.45 151.022 101.45C151.022 105.959 151.022 110.05 151.022 114.243C155.731 114.243 160.27 114.243 164.858 114.243C164.858 109.921 164.858 105.778 164.858 101.45C162.203 101.45 159.778 101.45 156.794 101.45Z" fill="#C13092"/>
<path d="M150.938 140.243C151.283 141.141 151.832 142.017 151.929 142.941C152.094 144.506 151.951 146.102 151.98 147.685C152.037 150.881 153.2 152.097 156.343 152.131C159.041 152.16 161.74 152.055 164.436 152.098C164.727 152.102 165.008 152.696 165.155 153.134C160.896 153.161 156.773 152.995 152.655 153.075C152.125 153.085 151.205 154.355 151.173 155.074C151.017 158.541 151.103 162.02 151.103 165.722C141.636 165.722 132.304 165.722 122.68 165.722C122.68 161.51 122.68 157.415 122.68 152.87C118.106 152.87 113.816 152.87 109.299 152.843C111.052 152.592 113.031 152.198 115.014 152.174C121.707 152.093 122.04 151.805 122.04 144.994C122.04 143.415 122.04 141.836 122.04 139.84C122.782 139.671 123.918 139.195 125.058 139.186C133.037 139.121 141.017 139.138 148.996 139.177C149.578 139.18 150.159 139.555 150.543 139.969C141.35 140.181 132.355 140.181 123.319 140.181C123.319 144.573 123.319 148.629 123.319 152.575C132.643 152.575 141.713 152.575 150.938 152.575C150.938 148.311 150.938 144.277 150.938 140.243Z" fill="#C23795"/>
<path d="M179.039 166.007C179.47 165.777 179.918 165.807 179.681 165.791C179.681 169.272 179.56 172.569 179.795 175.84C179.836 176.411 181.371 177.309 182.224 177.318C189.251 177.392 196.279 177.236 203.307 177.28C205.24 177.291 206.365 176.925 206.236 174.691C206.117 172.628 206.116 170.547 206.242 168.484C206.335 166.958 205.785 166.193 204.129 165.932C204.902 165.79 205.832 165.79 207.001 165.79C207.001 169.975 207.001 174.126 207.001 178.434C197.757 178.434 188.586 178.434 179.057 178.434C179.057 174.3 179.057 170.284 179.039 166.007Z" fill="#C23795"/>
<path d="M107.036 165.65C106.904 165.128 107.007 164.648 107.109 164.168C106.956 164.11 106.802 164.053 106.648 163.995C107.071 163.124 107.776 162.278 107.858 161.376C108.042 159.351 107.845 157.295 107.951 155.258C107.994 154.433 108.423 153.628 108.911 152.794C109.078 156.388 108.991 160.003 108.956 163.619C108.945 164.81 109.002 165.949 107.036 165.65Z" fill="#C23795"/>
<path d="M165.018 162.567C165.516 163.115 165.971 163.905 166.658 165.099C166.685 165.103 167.379 165.226 168.206 165.48C167.326 165.612 166.313 165.612 164.976 165.612C164.976 164.615 164.976 163.712 165.018 162.567Z" fill="#C23795"/>
<path d="M195.237 165.744C194.721 165.865 193.985 165.939 193.234 165.852C193.818 165.692 194.417 165.695 195.237 165.744Z" fill="#C23795"/>
<path d="M177.611 165.653C177.953 165.548 178.497 165.484 179.043 165.595C178.634 165.744 178.224 165.719 177.611 165.653Z" fill="#C23795"/>
<path d="M95.1343 165.774C95.2483 165.661 95.5434 165.521 95.9362 165.494C95.7943 165.654 95.5548 165.7 95.1343 165.774Z" fill="#C23795"/>
<path d="M105.23 165.642C105.18 165.384 105.274 165.159 105.367 164.935C105.456 165.07 105.546 165.205 105.646 165.472C105.563 165.627 105.468 165.651 105.23 165.642Z" fill="#C23795"/>
<path d="M108.924 106.963C108.924 105.026 108.924 103.367 108.924 101.576C113.72 101.576 118.184 101.576 122.837 101.576C122.837 105.754 122.837 109.835 122.837 114.169C118.347 114.169 113.826 114.169 108.924 114.169C108.924 111.868 108.924 109.555 108.924 106.963Z" fill="#FDF9F8"/>
<path d="M157.073 101.45C159.778 101.451 162.203 101.451 164.858 101.451C164.858 105.778 164.858 109.921 164.858 114.243C160.27 114.243 155.731 114.243 151.022 114.243C151.022 110.05 151.022 105.959 151.022 101.45C152.93 101.45 154.862 101.45 157.073 101.45Z" fill="#FDFCFC"/>
<path d="M150.905 140.249C150.937 144.277 150.937 148.311 150.937 152.575C141.713 152.575 132.643 152.575 123.318 152.575C123.318 148.629 123.318 144.573 123.318 140.181C132.354 140.181 141.349 140.181 150.611 140.185C150.878 140.188 150.872 140.255 150.905 140.249Z" fill="white"/>
</svg>
