<svg width="275" height="254" viewBox="0 0 275 254" fill="none" xmlns="http://www.w3.org/2000/svg">
<path d="M86.92 6.93213H85.3253L83.9411 7.72383L59.8584 21.4979L58.4628 22.296L57.6533 23.6851L7.19448 110.267L6.3784 111.667L6.37839 113.288L6.37817 140.837L6.37816 142.458L7.19427 143.858L57.653 230.44L58.4624 231.829L59.8579 232.627L83.9403 246.401L85.3246 247.193H86.9193H187.837H189.431L190.816 246.401L214.898 232.627L216.294 231.829L217.103 230.44L267.562 143.858L268.378 142.458L268.378 140.837L268.378 113.288V111.668L267.562 110.267L217.104 23.6856L216.294 22.2966L214.899 21.4984L190.816 7.72389L189.432 6.93213H187.837H86.92Z" fill="#0C3845" stroke="#3BC7F4" stroke-width="12"/>
<path d="M82.5662 131.853C82.566 130.296 82.566 129.049 82.566 127.386C77.4778 127.386 72.5278 127.386 67.3966 127.386C67.3966 117.707 67.3966 108.444 67.3966 98.9291C72.3448 98.9291 77.2862 98.9291 82.6237 98.9291C82.6237 103.553 82.6237 108.1 82.6237 112.813C87.9745 112.813 92.9327 112.813 98.2439 112.813C98.2439 108.128 98.2439 103.583 98.2439 98.7042C103.547 98.7042 108.507 98.7042 113.746 98.7042C113.746 93.8101 113.746 89.2511 113.746 84.467C119.086 84.467 124.14 84.467 129.464 84.467C129.464 89.1215 129.464 93.679 129.464 98.4581C134.77 98.4581 139.812 98.4581 145.135 98.4581C145.135 93.7865 145.135 89.2276 145.135 84.4585C150.375 84.4585 155.34 84.4585 160.596 84.4585C160.596 89.0297 160.596 93.5867 160.596 98.5509C165.918 98.5509 170.974 98.5509 176.36 98.5509C176.36 103.493 176.36 108.04 176.36 112.781C181.563 112.781 186.43 112.781 191.648 112.781C191.648 108.283 191.648 103.741 191.648 98.943C197.037 98.943 202.082 98.943 207.334 98.943C207.334 108.25 207.334 117.509 207.334 127.187C202.286 127.187 197.232 127.187 192.006 127.187C192.006 136.861 192.006 146.118 192.006 155.798C197.135 155.798 202.188 155.798 207.377 155.798C207.377 160.689 207.377 165.16 207.377 169.882C197.201 169.882 187.027 169.882 176.502 169.882C176.502 160.624 176.502 151.377 176.502 141.933C171.188 141.933 166.218 141.933 160.839 141.933C160.839 146.426 160.839 150.962 160.839 155.663C155.47 155.663 150.507 155.663 145.258 155.663C145.258 151.1 145.258 146.648 145.258 141.966C139.935 141.966 134.893 141.966 129.571 141.966C129.571 146.499 129.571 150.953 129.571 155.621C124.251 155.621 119.203 155.621 113.867 155.621C113.867 151.082 113.867 146.629 113.867 141.956C108.626 141.956 103.665 141.956 98.3854 141.956C98.3854 151.205 98.3854 160.465 98.3854 169.927C87.8904 169.927 77.7099 169.927 67.377 169.927C67.377 165.256 67.377 160.716 67.377 155.874C72.4155 155.874 77.2884 155.874 82.5663 155.874C82.5663 147.774 82.5663 139.969 82.5662 131.853ZM114.904 112.875C114.558 113.194 113.917 113.509 113.912 113.833C113.846 118.287 113.868 122.741 113.868 127.16C119.309 127.16 124.356 127.16 129.36 127.16C129.36 122.321 129.36 117.749 129.36 112.85C124.646 112.85 120.077 112.85 114.904 112.875ZM154.914 112.846C151.714 112.846 148.515 112.846 145.262 112.846C145.262 117.894 145.262 122.532 145.262 127.292C150.429 127.292 155.397 127.292 160.561 127.292C160.561 122.512 160.561 117.87 160.561 112.845C158.803 112.845 157.167 112.845 154.914 112.846Z" fill="#04BACF"/>
<path d="M115.205 112.862C120.076 112.85 124.646 112.85 129.36 112.85C129.36 117.749 129.36 122.321 129.36 127.16C124.356 127.16 119.309 127.16 113.868 127.16C113.868 122.741 113.846 118.287 113.912 113.833C113.917 113.509 114.558 113.194 115.205 112.862Z" fill="#FBFDFC"/>
<path d="M155.222 112.845C157.167 112.845 158.803 112.845 160.561 112.845C160.561 117.87 160.561 122.512 160.561 127.292C155.397 127.292 150.429 127.292 145.262 127.292C145.262 122.532 145.262 117.894 145.262 112.846C148.515 112.846 151.714 112.846 155.222 112.845Z" fill="#FBFDFC"/>
</svg>
