<svg width="2000" height="2000" viewBox="0 0 2000 2000" fill="none" xmlns="http://www.w3.org/2000/svg">
<g clip-path="url(#clip0_835_107)">
<path d="M1771 1787C1283 1787 795.505 1786.98 308.007 1787.19C300.728 1787.19 295.51 1784.91 290.654 1780.16C279.254 1769.01 267.779 1757.94 256.334 1746.83C245.009 1735.85 233.721 1724.82 222.352 1713.88C206.456 1698.58 190.5 1683.34 174.571 1668.08C158.522 1652.7 142.476 1637.32 126.427 1621.94C110.499 1606.67 94.5757 1591.4 78.626 1576.16C77.6963 1575.27 76.4892 1574.68 75.5154 1573.83C70.5188 1569.47 66.7384 1565.31 66.7579 1557.37C67.0948 1420.37 67.0005 1283.37 67.0001 1146.37C67.0001 1137.45 70.1847 1130.39 78.9749 1127.03C91.4988 1122.25 105.075 1130.57 105.065 1143.46C104.96 1276.8 105.023 1410.13 104.903 1543.46C104.899 1548.02 106.315 1551 110.193 1553.07C111.044 1553.52 111.741 1554.3 112.449 1554.99C126.496 1568.67 140.485 1582.42 154.585 1596.05C171.285 1612.2 188.069 1628.26 204.835 1644.33C220.399 1659.25 235.998 1674.14 251.562 1689.06C268.328 1705.14 285.056 1721.25 301.837 1737.31C305.17 1740.5 308.612 1743.59 312.129 1746.57C313.034 1747.34 314.384 1747.73 315.592 1747.95C316.883 1748.18 318.249 1748 319.582 1748C825.747 1748 1331.91 1748 1838.07 1748C1840.21 1748 1842.34 1748 1845 1748C1845 1745.88 1845 1744.11 1845 1742.33C1845 1303.67 1845 865.001 1845.07 426.337C1845.07 422.924 1844.17 420.541 1841.73 418.104C1777.43 353.944 1713.2 289.719 1649.06 225.409C1646.47 222.811 1643.93 221.934 1640.37 221.934C1200.21 222.004 760.045 222.006 319.881 221.906C315.855 221.905 313.211 223.165 310.432 225.949C240.855 295.671 171.149 365.264 101.574 434.987C91.9566 444.625 80.232 443.326 72.9247 437.442C64.9578 431.028 64.9809 416.037 72.4211 408.914C85.4197 396.469 97.9575 383.543 110.685 370.815C171.847 309.649 233.023 248.497 294.114 187.26C296.556 184.813 298.945 183.928 302.352 183.929C753.684 184.004 1205.01 184.003 1656.35 183.937C1659.89 183.936 1662.44 184.78 1665.04 187.387C1736.85 259.356 1808.74 331.24 1880.69 403.065C1883.12 405.487 1884.08 407.848 1884.08 411.282C1884 867.946 1884 1324.61 1884 1781.27C1884 1782.93 1884 1784.59 1884 1787C1846.4 1787 1808.95 1787 1771 1787Z" fill="#3BC7F4"/>
<path d="M1762 1175C1762 1341.47 1762 1507.44 1762 1674C1759.78 1674 1757.85 1674 1755.91 1674C1287.42 1674 818.923 1674 350.43 1674.07C347.05 1674.07 344.63 1673.27 342.168 1670.8C292.52 1620.98 242.752 1571.29 193.135 1521.44C191.416 1519.71 190.127 1516.67 190.126 1514.24C189.994 1162.75 189.994 811.253 190.126 459.758C190.127 457.329 191.588 454.547 193.16 452.554C195.722 449.305 198.949 446.582 201.878 443.62C231.138 414.033 260.418 384.465 289.642 354.843C306.928 337.323 324.495 320.054 341.124 301.928C345.845 296.783 350.313 295.922 356.418 295.924C763.912 296.008 1171.41 296.006 1578.9 295.918C1582.85 295.917 1585.59 296.954 1588.42 299.793C1645.01 356.565 1701.71 413.241 1758.47 469.849C1761.02 472.393 1762.08 474.848 1762.08 478.475C1761.99 710.483 1762 942.492 1762 1175ZM1651 381.5C1628.13 358.631 1605.2 335.816 1582.45 312.824C1579.64 309.984 1576.91 308.914 1572.94 308.915C1203.63 309.006 834.319 309 465.006 309C429.174 309 393.343 308.947 357.512 309.123C355.223 309.134 352.38 310.348 350.751 311.966C341.565 321.083 332.717 330.539 323.67 339.798C306.585 357.282 289.464 374.729 272.322 392.156C250.038 414.81 227.774 437.484 205.351 459.999C202.428 462.934 202.84 464.548 205.567 467.187C214.786 476.11 223.654 485.398 232.911 494.28C235.896 497.144 237.099 499.987 237.097 504.177C236.985 693.999 237.009 883.822 236.929 1073.65C236.927 1077.05 237.769 1079.47 240.254 1081.89C250.767 1092.11 260.975 1102.65 271.497 1112.86C274.096 1115.38 275.081 1117.89 275.079 1121.5C274.983 1241.33 275.011 1361.15 274.937 1480.98C274.935 1484.21 275.838 1486.47 278.145 1488.76C313.452 1523.93 348.691 1559.16 383.838 1594.48C386.385 1597.04 388.849 1598.08 392.471 1598.08C516.631 1597.98 640.791 1598.01 764.951 1597.94C768.166 1597.94 770.442 1598.81 772.738 1601.13C791.376 1619.96 810.202 1638.61 828.831 1657.45C831.359 1660.01 833.811 1661.08 837.45 1661.08C1139.1 1660.99 1440.75 1661 1742.4 1661C1744.17 1661 1745.94 1661 1748 1661C1748 1658.79 1748 1657.15 1748 1655.51C1748 1264.69 1748 873.882 1748.06 483.07C1748.06 479.85 1747.2 477.583 1744.88 475.279C1713.69 444.248 1682.61 413.111 1651 381.5Z" fill="#3BC7F4"/>
<path d="M1797 1858C1829.58 1858 1861.66 1858 1895.06 1858C1893.17 1860.09 1892.18 1861.28 1891.09 1862.37C1877.55 1875.93 1863.94 1889.42 1850.5 1903.08C1848.32 1905.31 1846.16 1906.07 1843.13 1906.06C1799.97 1905.97 1756.81 1906.08 1713.65 1905.88C1709.08 1905.86 1706.01 1907.24 1702.9 1910.45C1691.77 1921.94 1680.41 1933.22 1668.97 1944.39C1667.52 1945.8 1665.04 1946.89 1663.04 1946.89C1484.06 1947.01 1305.07 1947.01 1126.09 1946.88C1123.96 1946.88 1121.35 1945.63 1119.79 1944.11C1107.98 1932.59 1096.31 1920.93 1084.76 1909.15C1082.48 1906.83 1080.21 1905.93 1076.98 1905.94C947.663 1906.01 818.343 1905.98 689.023 1906.09C684.301 1906.1 681.004 1904.59 677.734 1901.34C663.373 1887.07 648.798 1873.01 633.398 1858C1021.83 1858 1409.16 1858 1797 1858Z" fill="#3BC7F4"/>
<path d="M655 55.0004C792.236 55.0004 928.972 55.0004 1065.71 55.0004C1065.93 55.3637 1066.15 55.727 1066.37 56.0903C1062.59 59.88 1058.85 63.7224 1055 67.4366C1053.11 69.2506 1050.9 70.72 1049 72.5257C1033.28 87.5201 1017.62 102.571 1001.91 117.573C996.52 122.715 990.895 127.618 985.677 132.922C982.796 135.85 979.786 137.077 975.647 137.074C842.338 136.984 709.03 137 575.721 137C506.401 137 437.08 137 367.76 137C365.964 137 364.167 137 361.571 137C362.532 135.558 362.977 134.58 363.689 133.867C389.232 108.277 414.763 82.6743 440.461 57.2405C441.942 55.7752 444.812 55.094 447.037 55.0905C516.191 54.9804 585.346 55.0004 655 55.0004Z" fill="#3BC7F4"/>
<path d="M1922 778C1922 652.67 1922 527.839 1922 403.009C1922 396.946 1923.69 395.018 1928.7 394.975C1932.96 394.939 1935.12 396.811 1935 401.146C1934.97 402.312 1935 403.479 1935 404.646C1935 879.134 1935 1353.62 1935 1828.11C1935 1830.24 1935 1832.37 1935 1835C1932.85 1835 1931.07 1835 1929.29 1835C1399.31 1835 869.32 1835 339.333 1835C331.495 1835 327.777 1830.71 331.099 1825.21C332.007 1823.71 334.213 1822.81 336.006 1822.09C337.154 1821.63 338.638 1822 339.971 1822C864.958 1822 1389.95 1822 1914.93 1822C1917.08 1822 1919.23 1822 1922 1822C1922 1474 1922 1126.25 1922 778Z" fill="#3BC7F4"/>
<path d="M1208.76 117.758C1228.9 97.6224 1248.75 77.6903 1268.77 57.939C1270.41 56.3276 1273.25 55.1555 1275.55 55.1263C1293.52 54.8986 1311.5 55.0002 1329.47 55.0003C1330.89 55.0003 1332.31 55.0003 1335.34 55.0003C1332.41 57.9479 1330.55 59.9144 1328.58 61.7536C1327.4 62.8574 1325.92 63.6546 1324.76 64.7742C1314.6 74.5397 1304.52 84.3996 1294.33 94.128C1282.36 105.545 1270.3 116.874 1258.25 128.206C1255.5 130.793 1252.67 133.298 1249.77 135.71C1248.96 136.38 1247.77 136.941 1246.75 136.945C1228.3 137.018 1209.85 136.998 1190.55 135.965C1196.54 129.979 1202.52 123.993 1208.76 117.758Z" fill="#3BC7F4"/>
<path d="M1080.75 70.7505C1086.2 65.3684 1090.58 58.2418 1096.84 55.6644C1103.11 53.0802 1111.25 55.0152 1118.57 55.0048C1130.38 54.9881 1142.2 55.0004 1154.02 55.0004C1155.59 55.0004 1157.17 55.0004 1158.75 55.0004C1158.89 55.3653 1159.03 55.7303 1159.17 56.0952C1157.77 57.2347 1156.29 58.2899 1154.98 59.5277C1147.65 66.474 1140.36 73.4638 1133.06 80.4398C1118.09 94.7372 1103.14 109.051 1088.15 123.323C1083.85 127.417 1079.47 131.439 1075.03 135.384C1074.14 136.178 1072.81 136.925 1071.67 136.931C1053.24 137.026 1034.8 136.998 1015.59 135.914C1037.23 114.276 1058.86 92.6384 1080.75 70.7505Z" fill="#3BC7F4"/>
<path d="M1236.92 55.0004C1240.17 55.0004 1242.94 55.0004 1245.71 55.0004C1245.94 55.3611 1246.16 55.7219 1246.38 56.0826C1242.6 59.8665 1238.87 63.7049 1235.02 67.412C1233.02 69.3399 1230.69 70.9336 1228.68 72.853C1213.08 87.7224 1197.54 102.647 1181.96 117.527C1176.21 123.012 1170.52 128.562 1164.54 133.782C1162.72 135.37 1160.04 136.829 1157.73 136.861C1139.75 137.112 1121.76 137 1103.07 137C1104.15 135.685 1104.82 134.695 1105.65 133.862C1131.08 108.409 1156.48 82.937 1182.04 57.6163C1183.55 56.1142 1186.28 55.1411 1188.46 55.1127C1204.45 54.9046 1220.44 55.0004 1236.92 55.0004Z" fill="#3BC7F4"/>
<path d="M1617.07 1622.01C1362.92 1622.01 1108.77 1621.99 854.615 1622.1C849.541 1622.11 845.97 1620.71 842.402 1617.07C824.55 1598.86 806.364 1580.99 788.452 1562.84C785.631 1559.98 782.761 1558.92 778.8 1558.93C655.474 1559.02 532.149 1558.98 408.823 1559.09C404.279 1559.1 401.105 1557.77 397.918 1554.55C371.285 1527.68 344.535 1500.93 317.668 1474.3C314.342 1471 312.89 1467.75 312.895 1462.99C313.028 1344.49 312.967 1226 313.11 1107.51C313.116 1102.39 311.654 1098.82 307.984 1095.33C298.45 1086.26 289.385 1076.69 279.924 1067.54C277.056 1064.76 275.917 1061.91 275.922 1057.92C276.028 982.258 276 906.596 276 830.934C276 717.441 275.974 603.948 276.088 490.456C276.093 485.614 275.04 481.923 271.286 478.655C265.904 473.969 260.944 468.796 255.542 463.579C256.96 461.89 257.821 460.72 258.826 459.693C261.857 456.596 264.959 453.57 268.006 450.489C297.051 421.118 326.106 391.757 355.113 362.348C358.725 358.686 361.852 354.522 365.637 351.065C367.396 349.458 370.151 348.859 372.54 348.06C373.59 347.709 374.854 348 376.02 348C768.996 348 1161.97 348.011 1554.95 347.888C1560.4 347.886 1564.18 349.504 1567.99 353.336C1613.36 398.941 1658.85 444.423 1704.45 489.8C1707.82 493.153 1709.09 496.479 1709.09 501.167C1708.99 842.485 1709 1183.8 1708.98 1525.9C1708.62 1527.4 1708.28 1528.13 1707.64 1529.01C1688.68 1548.51 1670.01 1567.84 1651.37 1587.2C1640.55 1598.44 1629.78 1609.74 1618.73 1621.08C1618 1621.44 1617.53 1621.73 1617.07 1622.01Z" fill="#0C3845"/>
<path d="M1707.95 1528.86C1708.28 1528.13 1708.62 1527.4 1708.98 1526.37C1711.78 1523.52 1714.54 1520.98 1717.69 1518.09C1717.69 1556.49 1717.69 1594.46 1717.69 1632.72C1681.22 1632.72 1644.75 1632.72 1606.98 1632.72C1610.76 1628.87 1613.8 1625.76 1616.96 1622.33C1617.53 1621.73 1618 1621.44 1619.06 1621.08C1620.11 1621 1620.55 1621 1621.16 1621.36C1622.67 1622.15 1624.01 1622.94 1625.36 1622.94C1651.05 1623.02 1676.74 1623.03 1702.42 1622.91C1703.95 1622.91 1705.47 1621.67 1707.31 1620.77C1708.08 1618.51 1708.93 1616.48 1708.94 1614.44C1709.03 1588.19 1709.03 1561.93 1708.95 1535.68C1708.95 1533.41 1708.3 1531.13 1707.95 1528.86Z" fill="#3BC7F4"/>
<path d="M1621 1621C1620.55 1621 1620.11 1621 1619.33 1621C1629.78 1609.74 1640.55 1598.44 1651.37 1587.2C1670.01 1567.84 1688.68 1548.51 1707.64 1529.01C1708.3 1531.13 1708.95 1533.41 1708.95 1535.68C1709.03 1561.93 1709.03 1588.19 1708.94 1614.44C1708.93 1616.48 1708.08 1618.51 1706.84 1620.77C1677.71 1621 1649.35 1621 1621 1621Z" fill="#3BC7F4"/>
<path d="M1621.16 1621.36C1649.35 1621 1677.71 1621 1706.53 1621C1705.47 1621.67 1703.95 1622.91 1702.42 1622.91C1676.74 1623.03 1651.05 1623.02 1625.36 1622.94C1624.01 1622.94 1622.67 1622.15 1621.16 1621.36Z" fill="#3BC7F4"/>
</g>
<defs>
<clipPath id="clip0_835_107">
<rect width="2000" height="2000" fill="white"/>
</clipPath>
</defs>
</svg>
