<svg width="391" height="74" viewBox="0 0 391 74" fill="none" xmlns="http://www.w3.org/2000/svg">
<path d="M44.5 51L52.5 26L68 14L77.5 27L69 52L53 63L44.5 51Z" fill="#3BC7F4"/>
<path d="M74.5 51L82.5 26L98 14L107.5 27L99 52L83 63L74.5 51Z" fill="#3BC7F4" fill-opacity="0.3"/>
<path d="M104.5 51L112.5 26L128 14L137.5 27L129 52L113 63L104.5 51Z" fill="#3BC7F4" fill-opacity="0.3"/>
<path d="M134.5 51L142.5 26L158 14L167.5 27L159 52L143 63L134.5 51Z" fill="#3BC7F4" fill-opacity="0.3"/>
<path d="M164.5 51L172.5 26L188 14L197.5 27L189 52L173 63L164.5 51Z" fill="#3BC7F4" fill-opacity="0.3"/>
<path d="M194.5 51L202.5 26L218 14L227.5 27L219 52L203 63L194.5 51Z" fill="#3BC7F4" fill-opacity="0.3"/>
<path d="M224.5 51L232.5 26L248 14L257.5 27L249 52L233 63L224.5 51Z" fill="#3BC7F4" fill-opacity="0.3"/>
<path d="M254.5 51L262.5 26L278 14L287.5 27L279 52L263 63L254.5 51Z" fill="#3BC7F4" fill-opacity="0.3"/>
<path d="M284.5 51L292.5 26L308 14L317.5 27L309 52L293 63L284.5 51Z" fill="#3BC7F4" fill-opacity="0.3"/>
<path d="M314.5 51L322.5 26L338 14L347.5 27L339 52L323 63L314.5 51Z" fill="#3BC7F4" fill-opacity="0.3"/>
<path d="M64.5 10L60 5L39.5 20.5L34.803 36H17L14.5 33.5L10 38L15 42.5H32.8333L29.5 53.5L45.5 74H132.5V72H177V69H132.5V67H47.5L36.5 52.5L45 25L64.5 10Z" fill="#D7F1EF"/>
<path d="M340.5 10L345.5 5L359.5 24L357.351 32H375L380.5 37L376.5 41.5L372.5 38H356L350.5 57.5L330 74H259V72H214.5V69H259V67H327L344.5 53L352 25.5L340.5 10Z" fill="#D7F1EF"/>
<path d="M75.668 21.5L68 11L70.5 9L77 18.5H84L96.5 8.5L98 11L84.5 21.5H75.668Z" fill="#D7F1EF"/>
<path d="M82.8759 0.0180664L78.9319 13.0181H82.8759L87.0682 0.0180664H82.8759Z" fill="#D7F1EF"/>
</svg>
