<svg width="391" height="69" viewBox="0 0 391 69" fill="none" xmlns="http://www.w3.org/2000/svg">
<path d="M44.5 46L52.5 21L68 9L77.5 22L69 47L53 58L44.5 46Z" fill="#3BC7F4"/>
<path d="M74.5 46L82.5 21L98 9L107.5 22L99 47L83 58L74.5 46Z" fill="#3BC7F4"/>
<path d="M104.5 46L112.5 21L128 9L137.5 22L129 47L113 58L104.5 46Z" fill="#3BC7F4"/>
<path d="M134.5 46L142.5 21L158 9L167.5 22L159 47L143 58L134.5 46Z" fill="#3BC7F4"/>
<path d="M164.5 46L172.5 21L188 9L197.5 22L189 47L173 58L164.5 46Z" fill="#3BC7F4"/>
<path d="M194.5 46L202.5 21L218 9L227.5 22L219 47L203 58L194.5 46Z" fill="#3BC7F4"/>
<path d="M224.5 46L232.5 21L248 9L257.5 22L249 47L233 58L224.5 46Z" fill="#3BC7F4"/>
<path d="M254.5 46L262.5 21L278 9L287.5 22L279 47L263 58L254.5 46Z" fill="#3BC7F4"/>
<path d="M284.5 46L292.5 21L308 9L317.5 22L309 47L293 58L284.5 46Z" fill="#3BC7F4"/>
<path d="M314.5 46L322.5 21L338 9L347.5 22L339 47L323 58L314.5 46Z" fill="#3BC7F4"/>
<path d="M64.5 5L60 0L39.5 15.5L34.803 31H17L14.5 28.5L10 33L15 37.5H32.8333L29.5 48.5L45.5 69H132.5V67H177V64H132.5V62H47.5L36.5 47.5L45 20L64.5 5Z" fill="#D7F1EF"/>
<path d="M340.5 5L345.5 0L359.5 19L357.351 27H375L380.5 32L376.5 36.5L372.5 33H356L350.5 52.5L330 69H259V67H214.5V64H259V62H327L344.5 48L352 20.5L340.5 5Z" fill="#D7F1EF"/>
</svg>
