<svg width="391" height="75" viewBox="0 0 391 75" fill="none" xmlns="http://www.w3.org/2000/svg">
<path d="M44.5 52L52.5 27L68 15L77.5 28L69 53L53 64L44.5 52Z" fill="#3BC7F4"/>
<path d="M74.5 52L82.5 27L98 15L107.5 28L99 53L83 64L74.5 52Z" fill="#3BC7F4"/>
<path d="M104.5 52L112.5 27L128 15L137.5 28L129 53L113 64L104.5 52Z" fill="#3BC7F4"/>
<path d="M134.5 52L142.5 27L158 15L167.5 28L159 53L143 64L134.5 52Z" fill="#3BC7F4"/>
<path d="M164.5 52L172.5 27L188 15L197.5 28L189 53L173 64L164.5 52Z" fill="#3BC7F4"/>
<path d="M194.5 52L202.5 27L218 15L227.5 28L219 53L203 64L194.5 52Z" fill="#3BC7F4"/>
<path d="M224.5 52L232.5 27L248 15L257.5 28L249 53L233 64L224.5 52Z" fill="#3BC7F4"/>
<path d="M254.5 52L262.5 27L278 15L287.5 28L279 53L263 64L254.5 52Z" fill="#3BC7F4"/>
<path d="M284.5 52L292.5 27L308 15L317.5 28L309 53L293 64L284.5 52Z" fill="#3BC7F4"/>
<path d="M314.5 52L322.5 27L338 15L347.5 28L339 53L323 64L314.5 52Z" fill="#3BC7F4" fill-opacity="0.3"/>
<path d="M64.5 11L60 6L39.5 21.5L34.803 37H17L14.5 34.5L10 39L15 43.5H32.8333L29.5 54.5L45.5 75H132.5V73H177V70H132.5V68H47.5L36.5 53.5L45 26L64.5 11Z" fill="#D7F1EF"/>
<path d="M340.5 11L345.5 6L359.5 25L357.351 33H375L380.5 38L376.5 42.5L372.5 39H356L350.5 58.5L330 75H259V73H214.5V70H259V68H327L344.5 54L352 26.5L340.5 11Z" fill="#D7F1EF"/>
<path d="M315.668 22.5L308 12L310.5 10L317 19.5H324L336.5 9.5L338 12L324.5 22.5H315.668Z" fill="#D7F1EF"/>
<path d="M327.924 13.9622H315.285L315.856 11.7523H325.558L327.628 3.74648H321.043L320.342 6.45694H325.895L325.244 8.97702H316.574L318.646 0.962239H331.285L327.924 13.9622Z" fill="#D7F1EF"/>
</svg>
