<svg width="275" height="253" viewBox="0 0 275 253" fill="none" xmlns="http://www.w3.org/2000/svg">
<path d="M59.4814 21.109L58.0859 21.9071L57.2764 23.2961L6.81753 109.878L6.00145 111.278L6.00143 112.899L6.00122 140.448L6.00121 142.069L6.81731 143.469L57.276 230.051L58.0855 231.44L59.4809 232.238L83.5633 246.012L84.9476 246.804H86.5423H187.46H189.054L190.439 246.012L214.521 232.238L215.917 231.44L216.726 230.051L267.185 143.469L268.001 142.069L268.001 140.448L268.001 112.9V111.279L267.185 109.878L216.727 23.2966L215.917 21.9077L214.522 21.1095L190.439 7.33497L189.055 6.54321H187.46H86.543H84.9484L83.5642 7.33492L59.4814 21.109Z" fill="#0C3845" stroke="#3BC7F4" stroke-width="12"/>
<path d="M194.809 57.4168C200.725 55.4481 205.64 58.4057 206.78 63.6397C207.485 66.8756 206.476 69.8427 204.02 72.2935C186.263 90.012 168.548 107.773 150.782 125.484C149.775 126.487 149.65 127.016 150.745 128.062C154.208 131.372 157.553 134.805 160.929 138.206C161.429 138.71 161.753 139.009 162.517 138.44C163.577 137.648 165.128 137.92 166.095 138.862C167.507 140.24 168.894 141.643 170.283 143.044C170.724 143.489 171.069 143.725 171.838 143.521C173.866 142.983 175.566 143.818 177.001 145.249C179.195 147.439 181.398 149.622 183.568 151.836C184.076 152.354 184.383 152.506 185.024 151.926C188.413 148.864 193.581 148.904 196.815 151.742C200.184 154.697 200.802 159.749 198.398 163.278C197.041 165.27 196.947 165.207 198.674 166.931C200.058 168.312 201.543 169.593 201.545 171.829C201.546 173.334 201.052 174.575 199.965 175.535C199.197 176.212 199.289 176.631 199.985 177.297C201.989 179.211 203.928 181.193 205.88 183.16C207.339 184.629 207.337 186.226 205.876 187.694C203.226 190.358 200.569 193.016 197.905 195.667C196.371 197.193 194.821 197.181 193.274 195.642C191.276 193.654 189.267 191.677 187.307 189.652C186.744 189.071 186.376 189.057 185.858 189.665C183.846 192.025 180.322 191.809 178.134 189.578C170.57 181.863 162.891 174.261 155.25 166.623C153.816 165.19 153.257 163.474 153.752 161.53C153.919 160.877 153.715 160.581 153.341 160.209C151.944 158.815 150.546 157.424 149.162 156.018C148.091 154.93 147.848 153.447 148.695 152.211C149.083 151.645 149.055 151.389 148.609 150.946C144.942 147.305 141.284 143.655 137.652 139.979C137.124 139.445 136.82 139.471 136.306 139.99C132.706 143.631 129.081 147.247 125.45 150.858C125.006 151.3 124.805 151.563 125.282 152.226C126.149 153.431 125.871 154.939 124.796 156.025C123.441 157.393 122.082 158.758 120.71 160.109C120.212 160.599 119.992 161.029 120.225 161.82C120.741 163.571 120.161 165.159 118.907 166.42C111.12 174.246 103.313 182.051 95.4988 189.849C93.481 191.862 90.3638 191.931 88.3912 189.902C87.5114 188.997 87.0704 189.188 86.3175 189.985C84.4795 191.931 82.556 193.796 80.6551 195.682C79.1655 197.159 77.5827 197.179 76.1227 195.728C73.4239 193.046 70.734 190.355 68.0526 187.655C66.6594 186.253 66.6524 184.616 68.0339 183.219C70.0158 181.215 71.9959 179.209 74.0227 177.251C74.6546 176.64 74.7515 176.28 74.0663 175.59C71.7558 173.262 71.8163 170.44 74.1253 168.104C74.8847 167.335 75.6285 166.549 76.4255 165.821C76.9491 165.343 76.9431 165.056 76.4758 164.463C73.4736 160.658 73.2232 156.596 75.8681 152.95C78.5449 149.261 84.2815 148.432 87.9557 151.191C89.7057 152.506 89.6749 152.548 91.1986 151.023C93.0916 149.13 94.9877 147.239 96.8749 145.339C98.3754 143.829 100.065 142.969 102.255 143.662C102.82 143.841 103.213 143.532 103.601 143.134C104.945 141.755 106.313 140.399 107.682 139.045C108.866 137.874 110.275 137.617 111.589 138.518C112.18 138.924 112.431 138.818 112.853 138.394C116.495 134.728 120.135 131.06 123.819 127.437C124.504 126.764 124.116 126.449 123.655 125.99C119.629 121.977 115.614 117.953 111.595 113.933C97.6464 99.9792 83.7178 86.005 69.7329 72.0874C66.7829 69.1516 66.2014 64.3801 68.0846 61.1741C69.6055 58.5848 71.8603 56.9906 75.0924 56.8197C78.3132 56.6494 80.7152 57.9373 82.8881 60.1141C100.578 77.8343 118.295 95.5271 135.97 113.262C136.831 114.125 137.235 114.025 138.035 113.222C155.746 95.4579 173.491 77.7263 191.213 59.9715C192.251 58.9313 193.379 58.0684 194.809 57.4168Z" fill="white"/>
<path d="M140.133 117.811C158.328 99.6074 176.453 81.4756 194.573 63.339C195.443 62.468 196.302 61.5789 197.593 61.4001C199.325 61.1601 200.748 61.7339 201.736 63.2032C202.673 64.5961 202.625 66.4633 201.621 67.834C201.263 68.3229 200.818 68.7519 200.387 69.1829C174.464 95.1221 148.54 121.06 122.611 146.992C121.01 148.593 121.405 148.563 119.855 147.041C118.682 145.89 117.571 144.672 116.35 143.575C115.526 142.834 115.55 142.359 116.343 141.576C121.357 136.629 126.319 131.63 131.298 126.649C134.22 123.726 137.141 120.804 140.133 117.811Z" fill="white"/>
<path d="M112.537 96.8323C119.249 103.547 125.88 110.204 132.549 116.82C133.274 117.539 133.402 117.95 132.578 118.684C131.248 119.87 129.996 121.152 128.791 122.466C128.149 123.167 127.769 123.095 127.133 122.45C122.742 118.006 118.311 113.601 113.894 109.183C100.377 95.6619 86.866 82.1353 73.3348 68.6287C72.1853 67.4812 71.5234 66.1837 71.9829 64.6101C72.7743 61.9004 76.0755 60.4422 78.4871 62.7808C80.51 64.7425 82.481 66.7576 84.4732 68.7509C93.8045 78.0875 103.135 87.4248 112.537 96.8323Z" fill="white"/>
<path d="M89.0896 162.872C90.2611 162.872 91.2966 162.92 92.3259 162.861C94.3196 162.747 95.966 163.389 97.425 164.773C99.3083 166.56 101.625 167.379 104.223 167.381C106.408 167.383 108.593 167.381 110.81 167.381C110.755 168.095 110.295 168.325 109.983 168.637C104.315 174.324 98.6231 179.985 92.9783 185.694C92.1972 186.484 91.7448 186.649 90.8771 185.762C86.6419 181.433 82.3497 177.159 78.0356 172.908C77.2751 172.159 77.1588 171.699 77.9981 170.908C80.0467 168.976 82.1005 167.032 83.9579 164.921C85.3466 163.343 86.8568 162.512 89.0896 162.872Z" fill="white"/>
<path d="M192.573 167.878C193.74 169.044 194.81 170.167 195.943 171.225C196.496 171.742 196.443 172.064 195.927 172.575C191.527 176.943 187.145 181.33 182.776 185.729C182.292 186.217 181.986 186.348 181.427 185.786C175.504 179.819 169.554 173.879 163.614 167.928C163.524 167.838 163.477 167.706 163.283 167.382C165.796 167.382 168.163 167.347 170.528 167.392C173.002 167.439 175.116 166.453 176.794 164.822C178.194 163.462 179.818 163.145 181.557 162.874C181.649 162.86 181.746 162.862 181.838 162.873C183.892 163.125 186.176 162.12 187.976 163.387C189.679 164.585 191.009 166.312 192.573 167.878Z" fill="white"/>
<path d="M100.141 149.124C100.573 148.677 100.858 148.277 101.443 148.867C105.991 153.452 110.565 158.011 115.133 162.581C114.788 163.035 114.38 162.873 114.044 162.861C110.455 162.732 106.856 163.152 103.269 162.616C102.191 162.456 101.373 162.001 100.594 161.298C98.5436 159.448 96.2539 158.156 93.3569 158.354C92.6768 158.401 91.9907 158.361 91.1277 158.034C94.1085 155.087 97.0893 152.141 100.141 149.124Z" fill="white"/>
<path d="M178.343 153.639C179.891 155.138 181.368 156.566 183.029 158.172C181.175 158.611 179.588 158.142 178.048 158.6C176.502 159.06 174.989 159.674 173.941 160.805C172.644 162.206 171.056 162.749 169.365 162.822C165.904 162.974 162.432 162.868 158.965 162.868C158.854 162.309 159.275 162.145 159.512 161.907C163.722 157.68 167.967 153.488 172.142 149.227C172.917 148.435 173.315 148.526 174.003 149.269C175.375 150.75 176.844 152.14 178.343 153.639Z" fill="white"/>
<path d="M144.102 132.211C146.002 130.31 146.002 130.31 147.789 132.098C151.006 135.316 154.207 138.552 157.456 141.739C158.105 142.376 158.161 142.757 157.469 143.397C156.092 144.67 154.786 146.021 153.48 147.369C153.022 147.842 152.712 148.043 152.135 147.458C148.477 143.751 144.791 140.072 141.09 136.408C140.58 135.903 140.677 135.599 141.139 135.161C142.125 134.225 143.07 133.244 144.102 132.211Z" fill="white"/>
<path d="M107.887 145.886C109.929 143.843 109.929 143.843 111.857 145.771C114.274 148.188 116.673 150.624 119.121 153.009C119.752 153.623 119.843 153.983 119.16 154.665C116.713 157.11 116.743 157.14 114.338 154.735C112.153 152.55 110.018 150.31 107.758 148.205C106.783 147.296 106.796 146.682 107.887 145.886Z" fill="white"/>
<path d="M164.225 144.072C165.073 144.885 165.812 145.671 166.608 146.395C167.132 146.873 167.193 147.201 166.644 147.741C163.707 150.631 160.799 153.551 157.904 156.483C157.435 156.958 157.156 156.947 156.655 156.496C153.883 153.999 153.869 154.014 156.498 151.382C158.715 149.163 160.931 146.941 163.158 144.732C163.443 144.449 163.641 144.018 164.225 144.072Z" fill="white"/>
<path d="M80.8331 182.398C81.7005 183.265 82.4799 184.08 83.3012 184.851C83.7433 185.265 83.7543 185.564 83.3104 185.995C81.8299 187.435 80.369 188.897 78.9308 190.379C78.4917 190.831 78.2006 190.781 77.7862 190.356C76.3442 188.877 74.8793 187.42 73.4062 185.973C73.0408 185.613 72.9358 185.34 73.3537 184.931C74.8635 183.454 76.3634 181.966 77.8332 180.449C78.3051 179.962 78.6003 180.132 78.9752 180.53C79.554 181.145 80.1652 181.73 80.8331 182.398Z" fill="white"/>
<path d="M192.715 182.818C193.77 181.9 194.521 180.209 195.645 180.281C196.61 180.343 197.519 181.819 198.384 182.734C199.243 183.641 200.843 184.393 200.755 185.489C200.68 186.428 199.246 187.273 198.384 188.13C197.49 189.019 196.598 190.517 195.638 190.572C194.52 190.635 193.761 188.952 192.78 188.1C192.745 188.069 192.712 188.035 192.68 188C191.906 187.13 190.452 186.462 190.424 185.448C190.396 184.419 191.884 183.766 192.715 182.818Z" fill="white"/>
<path d="M84.7859 154.96C85.946 155.621 86.2112 156.218 85.1006 157.169C83.7541 158.323 82.5327 159.631 81.3215 160.932C80.7381 161.558 80.3707 161.43 79.8746 160.871C78.7471 159.601 78.5993 157.71 79.5609 156.239C80.6528 154.57 82.4881 154.1 84.7859 154.96Z" fill="white"/>
<path d="M194.593 156.64C195.331 158.285 195.075 159.689 193.986 160.972C193.571 161.461 193.239 161.532 192.747 161.021C191.32 159.538 189.862 158.086 188.383 156.655C187.915 156.202 188.027 155.922 188.431 155.519C190.108 153.845 193.273 154.084 194.593 156.64Z" fill="white"/>
</svg>
