<svg width="275" height="253" viewBox="0 0 275 253" fill="none" xmlns="http://www.w3.org/2000/svg">
<path d="M86.951 6.73755H85.3564L83.9721 7.52925L59.8894 21.3033L58.4938 22.1015L57.6843 23.4905L7.22549 110.072L6.40941 111.473L6.40939 113.094L6.40918 140.642L6.40917 142.263L7.22527 143.663L57.684 230.245L58.4934 231.634L59.8889 232.432L83.9713 246.207L85.3556 246.999H86.9503H187.868H189.462L190.847 246.207L214.929 232.433L216.325 231.635L217.134 230.246L267.593 143.664L268.409 142.263L268.409 140.643L268.409 113.094V111.473L267.593 110.073L217.135 23.491L216.325 22.102L214.93 21.3038L190.847 7.52931L189.463 6.73755H187.868H86.951Z" fill="#0C3845" stroke="#3BC7F4" stroke-width="12"/>
<path fill-rule="evenodd" clip-rule="evenodd" d="M137.408 181.959C128.385 181.959 119.5 181.947 110.614 181.964C106.122 181.973 101.803 178.312 100.779 174.08C100.153 171.495 100.582 168.851 100.519 166.235C100.499 165.448 100.297 164.901 99.7221 164.356C95.5233 160.378 92.5116 155.652 90.8685 150.081C90.4193 148.558 89.9818 147.031 89.8443 145.445C89.7935 144.859 89.6161 144.642 89.0075 144.465C85.2049 143.357 82.8048 139.768 82.9611 135.957C83.1121 132.272 83.0948 128.573 82.9644 124.887C82.8425 121.444 85.2112 117.71 88.7526 116.769C89.9185 116.46 89.7311 115.555 89.7847 114.946C90.2902 109.203 91.9922 103.801 94.5647 98.7034C96.4815 94.9049 98.9455 91.4508 101.834 88.264C106.015 83.6522 110.952 80.0895 116.457 77.3593C120.749 75.2307 125.335 73.8503 130.114 73.0796C132.825 72.6425 135.557 72.3383 138.253 72.3767C144.803 72.4698 151.156 73.7435 157.202 76.4089C163.853 79.3408 169.461 83.6883 174.226 89.0822C179.695 95.2725 183.144 102.564 184.928 110.605C185.25 112.055 185.612 113.565 185.534 115.1C185.447 116.778 186.806 116.769 187.994 117.222V115.641C187.994 104.249 187.993 92.857 187.995 81.4652C187.995 79.5241 189.418 78.5376 191.233 79.24C192.15 79.5954 192.386 80.3435 192.38 81.2799C192.354 85.1985 192.369 89.1174 192.369 93.0362C192.369 107.572 192.396 122.108 192.349 136.644C192.338 140.104 190.579 142.699 187.435 143.997C185.986 144.596 185.478 145.366 185.249 146.741C184.331 152.256 182.022 157.132 178.373 161.372C178.085 161.707 177.908 162.173 177.565 162.418C175.226 164.081 174.521 166.3 174.815 169.115C175.012 170.999 175.016 172.928 174.362 174.834C173.018 178.747 168.689 182.031 164.611 181.988C155.59 181.894 146.567 181.959 137.408 181.959ZM100.77 115.988C100.875 125.444 100.5 134.904 101.041 144.489C100.845 150.364 104.712 154.975 109.487 156.756C116.843 159.5 124.493 161.199 132.327 161.667C138.454 162.033 144.628 161.911 150.704 160.867C156.119 159.936 161.423 158.562 166.592 156.591C171.435 154.743 174.907 149.472 174.883 144.681C174.835 135.203 174.949 125.724 174.836 116.247C174.777 111.273 172.376 107.377 167.967 105.182C162.966 102.692 157.448 101.594 152.066 100.159C150.527 99.7484 149.656 100.266 148.718 101.304C147.528 102.62 146.209 103.817 144.974 105.094C144.569 105.514 144.152 105.688 143.559 105.684C139.731 105.657 135.903 105.657 132.076 105.684C131.482 105.688 131.068 105.51 130.661 105.093C129.133 103.53 127.571 102 126.029 100.451L126.012 100.433C125.7 100.119 125.448 99.8661 124.887 99.9877C120.422 100.956 115.963 101.936 111.65 103.479C108.473 104.615 105.333 105.786 103.286 108.744C101.767 110.936 100.74 113.278 100.77 115.988Z" fill="white"/>
</svg>
