<svg width="274" height="254" viewBox="0 0 274 254" fill="none" xmlns="http://www.w3.org/2000/svg">
<path d="M86.5423 6.86816H84.9477L83.5634 7.65987L59.4807 21.4339L58.0851 22.2321L57.2756 23.6211L6.8168 110.203L6.00071 111.603L6.0007 113.224L6.00049 140.773L6.00048 142.394L6.81658 143.794L57.2753 230.376L58.0848 231.765L59.4802 232.563L83.5626 246.337L84.9469 247.129H86.5416H187.459H189.054L190.438 246.337L214.521 232.563L215.916 231.765L216.726 230.376L267.184 143.794L268 142.394L268 140.773L268.001 113.224V111.604L267.185 110.203L216.726 23.6216L215.916 22.2326L214.521 21.4345L190.438 7.65992L189.054 6.86816H187.459H86.5423Z" fill="#0C3845" stroke="#3BC7F4" stroke-width="12"/>
<g clip-path="url(#clip0_1040_718)">
<path d="M136.999 74.6287C108.007 74.6287 84.499 98.137 84.499 127.129C84.499 156.12 108.007 179.629 136.999 179.629C141.841 179.629 145.749 175.72 145.749 170.879C145.749 168.604 144.874 166.562 143.474 164.987C142.132 163.47 141.257 161.429 141.257 159.212C141.257 154.37 145.166 150.462 150.007 150.462H160.332C176.432 150.462 189.499 137.395 189.499 121.295C189.499 95.512 165.991 74.6287 136.999 74.6287ZM104.916 127.129C100.074 127.129 96.1657 123.22 96.1657 118.379C96.1657 113.537 100.074 109.629 104.916 109.629C109.757 109.629 113.666 113.537 113.666 118.379C113.666 123.22 109.757 127.129 104.916 127.129ZM122.416 103.795C117.574 103.795 113.666 99.887 113.666 95.0453C113.666 90.2037 117.574 86.2953 122.416 86.2953C127.257 86.2953 131.166 90.2037 131.166 95.0453C131.166 99.887 127.257 103.795 122.416 103.795ZM151.582 103.795C146.741 103.795 142.832 99.887 142.832 95.0453C142.832 90.2037 146.741 86.2953 151.582 86.2953C156.424 86.2953 160.332 90.2037 160.332 95.0453C160.332 99.887 156.424 103.795 151.582 103.795ZM169.082 127.129C164.241 127.129 160.332 123.22 160.332 118.379C160.332 113.537 164.241 109.629 169.082 109.629C173.924 109.629 177.832 113.537 177.832 118.379C177.832 123.22 173.924 127.129 169.082 127.129Z" fill="white"/>
</g>
<defs>
<clipPath id="clip0_1040_718">
<rect width="140" height="140" fill="white" transform="translate(66.999 57.1287)"/>
</clipPath>
</defs>
</svg>
