<svg width="275" height="254" viewBox="0 0 275 254" fill="none" xmlns="http://www.w3.org/2000/svg">
<path d="M87.1678 6.91797H85.5732L84.1889 7.70967L60.1062 21.4837L58.7106 22.2819L57.9011 23.6709L7.44228 110.253L6.6262 111.653L6.62619 113.274L6.62598 140.823L6.62596 142.443L7.44207 143.844L57.9008 230.425L58.7102 231.814L60.1057 232.613L84.1881 246.387L85.5724 247.179H87.1671H188.085H189.679L191.063 246.387L215.146 232.613L216.542 231.815L217.351 230.426L267.81 143.844L268.626 142.444L268.626 140.823L268.626 113.274V111.653L267.81 110.253L217.351 23.6714L216.542 22.2824L215.146 21.4843L191.064 7.70973L189.68 6.91797H188.085H87.1678Z" fill="#0C3845" stroke="#3BC7F4" stroke-width="12"/>
<path fill-rule="evenodd" clip-rule="evenodd" d="M161.013 169.281L161.013 155.386H176.383V141.148H191.378C191.378 141.148 191.482 119.931 191.573 112.904L176.383 113.171L176.383 98.7696H160.822V84.7235H114.301V98.9697H98.8666V113.041H83.6898V141.329H98.9983L99.042 155.587H114.474V169.305L137.776 169.293L161.013 169.281Z" fill="white"/>
<path d="M130.095 183.024V169.265L114.474 169.305V183.024H130.095Z" fill="white"/>
<path d="M161.013 183.04V169.281L145.392 169.321V183.04H161.013Z" fill="white"/>
<path d="M192.004 169.104V155.346L176.383 155.386V169.104H192.004Z" fill="white"/>
<path d="M207.625 182.823V169.064L192.004 169.104V182.823H207.625Z" fill="white"/>
<path d="M99.0422 169.346L99.042 155.587L83.4211 155.627L83.4203 169.346H99.0422Z" fill="white"/>
<path d="M83.4202 183.104L83.4203 169.346L67.7992 169.386V183.104H83.4202Z" fill="white"/>
<path d="M98.8666 98.9697L98.8665 85.2111L83.2456 85.2513V98.9697H98.8666Z" fill="white"/>
<path d="M83.2456 85.2513L83.2457 71.4926L67.6248 71.5328V85.2513L83.2456 85.2513Z" fill="white"/>
<path d="M192.004 98.7696L192.004 85.0109L176.383 85.0511L176.383 98.7696H192.004Z" fill="white"/>
<path d="M207.625 85.0108L207.625 71.2521L192.004 71.2923V85.0109L207.625 85.0108Z" fill="white"/>
<path d="M113.851 112.646H118.811L118.811 117.607H113.851L113.851 112.646Z" fill="black"/>
<path d="M118.811 117.607H123.771L123.771 122.567H118.811L118.811 117.607Z" fill="black"/>
<path d="M123.771 122.567H128.731L128.732 127.527H123.771L123.771 122.567Z" fill="black"/>
<path d="M113.851 122.567H118.811L118.811 127.527H113.851L113.851 122.567Z" fill="black"/>
<path d="M123.771 112.646H128.731L128.731 117.607L123.771 117.607L123.771 112.646Z" fill="black"/>
<path d="M145.48 113.149H150.44L150.44 118.109H145.48L145.48 113.149Z" fill="black"/>
<path d="M150.44 118.109H155.4L155.401 123.07H150.44L150.44 118.109Z" fill="black"/>
<path d="M155.401 123.07H160.361L160.361 128.03H155.401L155.401 123.07Z" fill="black"/>
<path d="M145.481 123.07H150.44L150.441 128.03H145.481L145.481 123.07Z" fill="black"/>
<path d="M155.4 113.149H160.36L160.361 118.109L155.4 118.109L155.4 113.149Z" fill="black"/>
<path d="M130.185 138.454H135.145L135.145 142.2L135.145 144.406H130.185L130.185 138.454Z" fill="black"/>
<path d="M135.145 142.2H140.105V148.374H135.145L135.145 142.2Z" fill="black"/>
<path d="M140.105 138.454H145.065L145.065 144.406L140.105 144.406V142.2L140.105 138.454Z" fill="black"/>
</svg>
