<svg width="274" height="254" viewBox="0 0 274 254" fill="none" xmlns="http://www.w3.org/2000/svg">
<path d="M86.5423 6.86938H84.9477L83.5634 7.66109L59.4807 21.4351L58.0851 22.2333L57.2756 23.6223L6.8168 110.204L6.00071 111.605L6.0007 113.225L6.00049 140.774L6.00048 142.395L6.81658 143.795L57.2753 230.377L58.0848 231.766L59.4802 232.564L83.5626 246.339L84.9469 247.13H86.5416H187.459H189.054L190.438 246.339L214.521 232.565L215.916 231.766L216.726 230.377L267.184 143.796L268 142.395L268 140.774L268.001 113.226V111.605L267.185 110.205L216.726 23.6228L215.916 22.2339L214.521 21.4357L190.438 7.66114L189.054 6.86938H187.459H86.5423Z" fill="#0C3845" stroke="#3BC7F4" stroke-width="12"/>
<path fill-rule="evenodd" clip-rule="evenodd" d="M86.5413 129.906L117.489 100.793L129.816 101.844L149.491 87.5876L187.457 80.5345L184.335 113.699L166.419 136.059V147.614L137.328 173.725V146.413L118.591 129.906H86.5413ZM164.447 95.0909C151.508 95.0909 150.843 112.122 164.447 112.122C176.981 112.122 177.386 95.0909 164.447 95.0909Z" fill="white"/>
<path d="M117.489 136.059L129.816 146.413L86.5413 173.725L117.489 136.059Z" fill="white"/>
</svg>
